<?xml version="1.0" encoding="utf-8"?>
<!-- Generator: Adobe Illustrator 18.0.0, SVG Export Plug-In . SVG Version: 6.00 Build 0)  -->
<!DOCTYPE svg PUBLIC "-//W3C//DTD SVG 1.1//EN" "http://www.w3.org/Graphics/SVG/1.1/DTD/svg11.dtd">
<svg version="1.1" id="Capa_1" xmlns="http://www.w3.org/2000/svg" xmlns:xlink="http://www.w3.org/1999/xlink" x="0px" y="0px"
	 viewBox="0 0 144 70.8" enable-background="new 0 0 144 70.8" width="144" height="70.8" xml:space="preserve">
<g>
	<path fill="#20B056" d="M29.9,49.4c-0.1,0.4-0.3,0.8-0.5,1.1c-0.2,0.3-0.6,0.5-1,0.6c-0.5,0.1-1.1,0.2-1.9,0.3
		c-0.8,0-1.9,0.1-3.2,0.1c-1,0-1.9,0-2.7,0c-0.7,0-1.4,0-1.9-0.1c-0.5-0.1-1-0.1-1.3-0.2c-0.3-0.1-0.6-0.2-0.8-0.4
		c-0.2-0.2-0.4-0.3-0.5-0.6c-0.1-0.2-0.2-0.5-0.3-0.8L0.6,4.2C0.3,3.2,0.1,2.5,0,1.9C0,1.4,0.1,1,0.4,0.7c0.3-0.3,0.9-0.4,1.7-0.5
		C2.9,0.1,4,0.1,5.4,0.1c1.2,0,2.1,0,2.8,0.1c0.7,0.1,1.2,0.1,1.6,0.3c0.4,0.1,0.6,0.3,0.8,0.6c0.1,0.3,0.3,0.6,0.4,1l12.4,39.2h0
		L35.5,2.2c0.1-0.4,0.2-0.8,0.4-1.1s0.4-0.5,0.8-0.6c0.4-0.2,0.9-0.3,1.6-0.3c0.7-0.1,1.7-0.1,2.9-0.1c1.2,0,2.1,0,2.8,0.1
		c0.7,0.1,1.1,0.3,1.4,0.6c0.2,0.3,0.3,0.7,0.2,1.3c-0.1,0.6-0.3,1.3-0.6,2.2L29.9,49.4z"/>
</g>
<g>
	<path d="M73.2,36c0.2,0.5,0.4,0.8,0.5,1.1c0.1,0.3,0,0.5-0.1,0.6c-0.2,0.1-0.4,0.2-0.9,0.3c-0.4,0-1,0.1-1.7,0.1
		c-0.6,0-1.1,0-1.5,0c-0.4,0-0.6-0.1-0.8-0.1c-0.2-0.1-0.4-0.1-0.4-0.2c-0.1-0.1-0.2-0.2-0.2-0.4L63.1,28l-4.8,9.3
		c-0.1,0.2-0.2,0.3-0.3,0.4c-0.1,0.1-0.2,0.2-0.4,0.2C57.4,38,57.1,38,56.7,38c-0.4,0-0.8,0-1.4,0c-0.7,0-1.2,0-1.6-0.1
		s-0.6-0.1-0.8-0.3c-0.1-0.1-0.2-0.4-0.1-0.6c0.1-0.3,0.2-0.7,0.5-1.1l6.2-11.2l-5.7-10.6c-0.2-0.5-0.4-0.9-0.5-1.1
		c-0.1-0.3-0.1-0.5,0.1-0.6c0.2-0.1,0.4-0.2,0.8-0.3c0.4,0,1,0,1.8,0c0.6,0,1.1,0,1.5,0c0.4,0,0.7,0.1,0.9,0.1
		c0.2,0.1,0.4,0.1,0.4,0.2c0.1,0.1,0.2,0.2,0.2,0.4l4.5,8.5l4.4-8.5c0.1-0.2,0.2-0.3,0.2-0.4c0.1-0.1,0.2-0.2,0.4-0.2
		c0.2-0.1,0.5-0.1,0.8-0.1c0.3,0,0.8,0,1.4,0c0.7,0,1.2,0,1.6,0c0.4,0,0.7,0.1,0.8,0.3c0.1,0.1,0.2,0.4,0.1,0.6
		c-0.1,0.3-0.2,0.7-0.4,1.1l-5.7,10.5L73.2,36z"/>
</g>
<g>
	<path fill="#EC2128" d="M144,49.8c0,0.3-0.1,0.5-0.2,0.7c-0.1,0.2-0.4,0.4-0.8,0.5c-0.4,0.1-0.9,0.2-1.5,0.3
		c-0.6,0.1-1.4,0.1-2.4,0.1c-0.9,0-1.7,0-2.4-0.1c-0.6-0.1-1.1-0.2-1.5-0.3c-0.4-0.1-0.6-0.3-0.8-0.5c-0.2-0.2-0.2-0.4-0.2-0.7V8.1
		h-0.1l-14.8,41.6c-0.1,0.3-0.3,0.6-0.5,0.9c-0.2,0.2-0.6,0.4-1,0.5c-0.4,0.1-0.9,0.2-1.6,0.3c-0.6,0-1.4,0.1-2.3,0.1
		c-0.9,0-1.7,0-2.3-0.1c-0.6-0.1-1.2-0.2-1.6-0.3c-0.4-0.1-0.7-0.3-1-0.5c-0.2-0.2-0.4-0.5-0.5-0.8L94.3,8.1h-0.1v41.7
		c0,0.3-0.1,0.5-0.2,0.7c-0.1,0.2-0.4,0.4-0.8,0.5c-0.4,0.1-0.9,0.2-1.5,0.3c-0.6,0.1-1.4,0.1-2.4,0.1c-0.9,0-1.7,0-2.4-0.1
		c-0.6-0.1-1.1-0.2-1.5-0.3c-0.4-0.1-0.6-0.3-0.8-0.5c-0.1-0.2-0.2-0.4-0.2-0.7V4.2c0-1.3,0.4-2.4,1.1-3.1C86.1,0.4,87,0,88.2,0H95
		c1.2,0,2.3,0.1,3.1,0.3c0.9,0.2,1.6,0.5,2.3,1c0.6,0.5,1.2,1.1,1.6,1.8c0.4,0.8,0.8,1.7,1.1,2.8l11.1,30.5h0.2L125.8,6
		c0.3-1.1,0.7-2,1.1-2.8c0.4-0.8,0.9-1.4,1.4-1.9c0.5-0.5,1.2-0.8,1.9-1c0.7-0.2,1.6-0.3,2.6-0.3h7c0.7,0,1.3,0.1,1.8,0.3
		c0.5,0.2,0.9,0.5,1.3,0.8c0.3,0.4,0.6,0.8,0.8,1.3c0.2,0.5,0.3,1.1,0.3,1.8V49.8z"/>
</g>
<g>
	<path d="M5.8,67.5c0,0.1-0.1,0.1-0.1,0.1c0,0-0.1,0.1-0.2,0.1c-0.1,0-0.2,0-0.3,0c-0.1,0-0.2,0-0.4,0c-0.1,0-0.2,0-0.3,0
		c-0.1,0-0.2,0-0.2,0c-0.1,0-0.1,0-0.2,0c0,0-0.1,0-0.1-0.1c0,0-0.1,0-0.1-0.1c0,0,0-0.1-0.1-0.1l-3.5-9.8c0-0.1-0.1-0.2-0.1-0.3
		c0-0.1,0-0.1,0.1-0.2c0,0,0.1-0.1,0.2-0.1c0.1,0,0.3,0,0.4,0c0.2,0,0.3,0,0.4,0c0.1,0,0.2,0,0.2,0c0,0,0.1,0.1,0.1,0.1
		c0,0,0,0.1,0.1,0.1l3,8.9h0l2.9-8.9c0-0.1,0-0.1,0.1-0.1c0,0,0.1-0.1,0.1-0.1c0.1,0,0.1,0,0.2,0c0.1,0,0.2,0,0.4,0
		c0.2,0,0.3,0,0.4,0c0.1,0,0.2,0,0.2,0.1c0,0,0,0.1,0,0.2c0,0.1,0,0.2-0.1,0.3L5.8,67.5z"/>
	<path d="M12.4,57.8c0,0.3-0.1,0.5-0.2,0.6c-0.1,0.1-0.3,0.2-0.7,0.2c-0.3,0-0.5-0.1-0.6-0.2c-0.1-0.1-0.2-0.3-0.2-0.6
		c0-0.3,0.1-0.5,0.2-0.6C11,57,11.2,57,11.6,57c0.3,0,0.5,0.1,0.6,0.2C12.3,57.2,12.4,57.4,12.4,57.8z M12.2,67.6c0,0,0,0.1,0,0.1
		c0,0-0.1,0.1-0.1,0.1c0,0-0.1,0-0.2,0c-0.1,0-0.2,0-0.3,0c-0.1,0-0.2,0-0.3,0c-0.1,0-0.2,0-0.2,0c-0.1,0-0.1,0-0.1-0.1
		c0,0,0-0.1,0-0.1v-7.3c0,0,0-0.1,0-0.1c0,0,0.1-0.1,0.1-0.1c0.1,0,0.1,0,0.2,0c0.1,0,0.2,0,0.3,0c0.1,0,0.2,0,0.3,0
		c0.1,0,0.2,0,0.2,0c0,0,0.1,0,0.1,0.1c0,0,0,0.1,0,0.1V67.6z"/>
	<path d="M21,63.6c0,0.2-0.1,0.4-0.2,0.5c-0.1,0.1-0.2,0.1-0.4,0.1h-4.8c0,0.4,0,0.8,0.1,1.1c0.1,0.3,0.2,0.6,0.4,0.8
		c0.2,0.2,0.4,0.4,0.7,0.5c0.3,0.1,0.7,0.2,1.1,0.2c0.4,0,0.7,0,0.9-0.1c0.3-0.1,0.5-0.1,0.7-0.2c0.2-0.1,0.4-0.1,0.5-0.2
		c0.1-0.1,0.2-0.1,0.3-0.1c0,0,0.1,0,0.1,0c0,0,0.1,0,0.1,0.1c0,0,0,0.1,0,0.2c0,0.1,0,0.2,0,0.2c0,0.1,0,0.1,0,0.2
		c0,0.1,0,0.1,0,0.1c0,0,0,0.1,0,0.1c0,0,0,0.1-0.1,0.1c0,0-0.1,0.1-0.3,0.1c-0.1,0.1-0.3,0.1-0.6,0.2c-0.2,0.1-0.5,0.1-0.8,0.2
		c-0.3,0.1-0.6,0.1-1,0.1c-0.6,0-1.1-0.1-1.6-0.3c-0.5-0.2-0.8-0.4-1.1-0.8c-0.3-0.3-0.5-0.7-0.7-1.2c-0.2-0.5-0.2-1.1-0.2-1.7
		c0-0.6,0.1-1.2,0.2-1.7c0.2-0.5,0.4-0.9,0.7-1.3s0.7-0.6,1.1-0.8c0.4-0.2,0.9-0.3,1.5-0.3c0.6,0,1.1,0.1,1.5,0.3
		c0.4,0.2,0.7,0.4,1,0.7c0.3,0.3,0.5,0.7,0.6,1.1c0.1,0.4,0.2,0.9,0.2,1.4V63.6z M19.6,63.2c0-0.7-0.1-1.3-0.5-1.7
		c-0.3-0.4-0.8-0.6-1.5-0.6c-0.3,0-0.6,0.1-0.9,0.2c-0.3,0.1-0.5,0.3-0.6,0.5c-0.2,0.2-0.3,0.4-0.4,0.7c-0.1,0.3-0.1,0.6-0.2,0.9
		H19.6z"/>
	<path d="M29.4,67.6c0,0,0,0.1,0,0.1c0,0-0.1,0.1-0.1,0.1c0,0-0.1,0-0.2,0c-0.1,0-0.2,0-0.3,0c-0.1,0-0.2,0-0.3,0
		c-0.1,0-0.2,0-0.2,0c0,0-0.1,0-0.1-0.1c0,0,0-0.1,0-0.1v-4.3c0-0.4,0-0.8-0.1-1c-0.1-0.3-0.2-0.5-0.3-0.7c-0.1-0.2-0.3-0.3-0.5-0.4
		c-0.2-0.1-0.4-0.1-0.7-0.1c-0.3,0-0.7,0.1-1,0.4c-0.3,0.2-0.7,0.6-1.1,1.1v5.1c0,0,0,0.1,0,0.1c0,0-0.1,0.1-0.1,0.1
		c0,0-0.1,0-0.2,0c-0.1,0-0.2,0-0.3,0c-0.1,0-0.2,0-0.3,0c-0.1,0-0.2,0-0.2,0c-0.1,0-0.1,0-0.1-0.1c0,0,0-0.1,0-0.1v-7.3
		c0,0,0-0.1,0-0.1c0,0,0-0.1,0.1-0.1c0,0,0.1,0,0.2,0c0.1,0,0.2,0,0.3,0c0.1,0,0.2,0,0.3,0c0.1,0,0.1,0,0.2,0c0,0,0.1,0.1,0.1,0.1
		c0,0,0,0.1,0,0.1v1c0.4-0.5,0.8-0.8,1.2-1c0.4-0.2,0.8-0.3,1.2-0.3c0.5,0,0.9,0.1,1.2,0.2c0.3,0.2,0.6,0.4,0.8,0.7
		c0.2,0.3,0.4,0.6,0.4,1c0.1,0.4,0.1,0.8,0.1,1.3V67.6z"/>
	<path d="M38.1,67.6c0,0,0,0.1,0,0.1c0,0-0.1,0.1-0.1,0.1c0,0-0.1,0-0.2,0c-0.1,0-0.2,0-0.3,0c-0.1,0-0.2,0-0.3,0
		c-0.1,0-0.1,0-0.2,0c0,0-0.1,0-0.1-0.1c0,0,0-0.1,0-0.1v-1c-0.4,0.4-0.8,0.7-1.2,1s-0.9,0.4-1.4,0.4c-0.5,0-1-0.1-1.4-0.3
		c-0.4-0.2-0.7-0.5-0.9-0.8c-0.2-0.4-0.4-0.8-0.5-1.3c-0.1-0.5-0.2-1-0.2-1.5c0-0.6,0.1-1.2,0.2-1.7c0.1-0.5,0.3-0.9,0.6-1.3
		c0.3-0.4,0.6-0.6,1-0.8c0.4-0.2,0.9-0.3,1.4-0.3c0.4,0,0.8,0.1,1.2,0.3c0.4,0.2,0.7,0.5,1.1,0.8v-4.3c0,0,0-0.1,0-0.1
		c0,0,0.1-0.1,0.1-0.1c0.1,0,0.1,0,0.2,0c0.1,0,0.2,0,0.3,0c0.1,0,0.2,0,0.3,0c0.1,0,0.2,0,0.2,0c0,0,0.1,0,0.1,0.1c0,0,0,0.1,0,0.1
		V67.6z M36.8,62.4c-0.4-0.5-0.7-0.8-1.1-1C35.4,61.1,35,61,34.6,61c-0.3,0-0.6,0.1-0.9,0.2c-0.2,0.2-0.4,0.4-0.6,0.6
		c-0.1,0.3-0.3,0.6-0.3,0.9c-0.1,0.3-0.1,0.7-0.1,1c0,0.4,0,0.7,0.1,1.1c0.1,0.4,0.2,0.7,0.3,0.9c0.1,0.3,0.3,0.5,0.6,0.7
		c0.2,0.2,0.5,0.2,0.9,0.2c0.2,0,0.4,0,0.5-0.1s0.3-0.1,0.5-0.2c0.2-0.1,0.4-0.3,0.5-0.4c0.2-0.2,0.4-0.4,0.6-0.7V62.4z"/>
	<path d="M47.4,63.8c0,0.6-0.1,1.1-0.2,1.7c-0.2,0.5-0.4,0.9-0.7,1.3c-0.3,0.4-0.7,0.6-1.2,0.9c-0.5,0.2-1,0.3-1.6,0.3
		c-0.6,0-1.1-0.1-1.6-0.3c-0.4-0.2-0.8-0.4-1.1-0.8c-0.3-0.3-0.5-0.8-0.7-1.2c-0.1-0.5-0.2-1-0.2-1.7c0-0.6,0.1-1.1,0.2-1.7
		c0.2-0.5,0.4-0.9,0.7-1.3c0.3-0.4,0.7-0.6,1.2-0.8c0.5-0.2,1-0.3,1.6-0.3c0.6,0,1.1,0.1,1.6,0.3c0.4,0.2,0.8,0.4,1.1,0.8
		c0.3,0.3,0.5,0.8,0.7,1.2C47.4,62.7,47.4,63.2,47.4,63.8z M46,63.9c0-0.4,0-0.8-0.1-1.1c-0.1-0.4-0.2-0.7-0.4-0.9
		c-0.2-0.3-0.4-0.5-0.7-0.6c-0.3-0.2-0.7-0.2-1.1-0.2c-0.4,0-0.7,0.1-1,0.2c-0.3,0.1-0.5,0.3-0.7,0.6c-0.2,0.3-0.3,0.6-0.4,0.9
		c-0.1,0.4-0.1,0.7-0.1,1.2c0,0.4,0,0.8,0.1,1.1c0.1,0.4,0.2,0.7,0.4,0.9c0.2,0.3,0.4,0.5,0.7,0.6c0.3,0.2,0.7,0.2,1.1,0.2
		c0.4,0,0.7-0.1,1-0.2c0.3-0.1,0.5-0.3,0.7-0.6c0.2-0.3,0.3-0.6,0.4-0.9C46,64.7,46,64.3,46,63.9z"/>
	<path d="M60,63.8c0,0.6-0.1,1.2-0.2,1.7c-0.1,0.5-0.3,0.9-0.6,1.3c-0.3,0.4-0.6,0.6-1,0.8c-0.4,0.2-0.9,0.3-1.4,0.3
		c-0.2,0-0.4,0-0.6-0.1c-0.2,0-0.4-0.1-0.5-0.2c-0.2-0.1-0.4-0.2-0.5-0.4c-0.2-0.1-0.4-0.3-0.6-0.5v3.7c0,0,0,0.1,0,0.1
		c0,0-0.1,0.1-0.1,0.1c0,0-0.1,0-0.2,0c-0.1,0-0.2,0-0.3,0c-0.1,0-0.2,0-0.3,0c-0.1,0-0.2,0-0.2,0c-0.1,0-0.1,0-0.1-0.1
		c0,0,0-0.1,0-0.1V60.2c0,0,0-0.1,0-0.1c0,0,0-0.1,0.1-0.1c0,0,0.1,0,0.2,0c0.1,0,0.2,0,0.3,0c0.1,0,0.2,0,0.3,0c0.1,0,0.1,0,0.2,0
		c0,0,0.1,0,0.1,0.1s0,0.1,0,0.1v1c0.2-0.2,0.4-0.4,0.6-0.6c0.2-0.2,0.4-0.3,0.6-0.4c0.2-0.1,0.4-0.2,0.6-0.3
		c0.2-0.1,0.5-0.1,0.7-0.1c0.5,0,1,0.1,1.4,0.3c0.4,0.2,0.7,0.5,0.9,0.8c0.2,0.4,0.4,0.8,0.5,1.3C59.9,62.8,60,63.3,60,63.8z
		 M58.6,63.9c0-0.4,0-0.7-0.1-1.1c-0.1-0.4-0.2-0.7-0.3-0.9c-0.1-0.3-0.3-0.5-0.6-0.7c-0.2-0.2-0.5-0.2-0.9-0.2
		c-0.2,0-0.3,0-0.5,0.1c-0.2,0.1-0.3,0.1-0.5,0.2c-0.2,0.1-0.4,0.3-0.6,0.4c-0.2,0.2-0.4,0.4-0.6,0.7v2.9c0.4,0.5,0.7,0.8,1.1,1
		c0.3,0.2,0.7,0.4,1.1,0.4c0.3,0,0.6-0.1,0.9-0.2c0.2-0.2,0.4-0.4,0.6-0.7c0.2-0.3,0.3-0.6,0.3-0.9C58.5,64.6,58.6,64.3,58.6,63.9z"
		/>
	<path d="M68.8,63.8c0,0.6-0.1,1.1-0.2,1.7c-0.2,0.5-0.4,0.9-0.7,1.3c-0.3,0.4-0.7,0.6-1.2,0.9c-0.5,0.2-1,0.3-1.6,0.3
		c-0.6,0-1.1-0.1-1.6-0.3c-0.4-0.2-0.8-0.4-1.1-0.8c-0.3-0.3-0.5-0.8-0.7-1.2c-0.1-0.5-0.2-1-0.2-1.7c0-0.6,0.1-1.1,0.2-1.7
		c0.2-0.5,0.4-0.9,0.7-1.3c0.3-0.4,0.7-0.6,1.2-0.8c0.5-0.2,1-0.3,1.6-0.3c0.6,0,1.1,0.1,1.6,0.3c0.4,0.2,0.8,0.4,1.1,0.8
		c0.3,0.3,0.5,0.8,0.7,1.2C68.7,62.7,68.8,63.2,68.8,63.8z M67.4,63.9c0-0.4,0-0.8-0.1-1.1c-0.1-0.4-0.2-0.7-0.4-0.9
		c-0.2-0.3-0.4-0.5-0.7-0.6C66,61.1,65.6,61,65.2,61c-0.4,0-0.7,0.1-1,0.2c-0.3,0.1-0.5,0.3-0.7,0.6c-0.2,0.3-0.3,0.6-0.4,0.9
		c-0.1,0.4-0.1,0.7-0.1,1.2c0,0.4,0,0.8,0.1,1.1c0.1,0.4,0.2,0.7,0.4,0.9c0.2,0.3,0.4,0.5,0.7,0.6c0.3,0.2,0.7,0.2,1.1,0.2
		c0.4,0,0.7-0.1,1-0.2c0.3-0.1,0.5-0.3,0.7-0.6c0.2-0.3,0.3-0.6,0.4-0.9C67.4,64.7,67.4,64.3,67.4,63.9z"/>
	<path d="M75.1,60.7c0,0.1,0,0.2,0,0.3c0,0.1,0,0.1,0,0.2c0,0,0,0.1-0.1,0.1c0,0-0.1,0-0.1,0c0,0-0.1,0-0.2,0c-0.1,0-0.1,0-0.2-0.1
		c-0.1,0-0.2,0-0.3-0.1c-0.1,0-0.2,0-0.3,0c-0.1,0-0.3,0-0.4,0.1c-0.1,0.1-0.3,0.1-0.4,0.3c-0.1,0.1-0.3,0.3-0.5,0.5
		c-0.2,0.2-0.3,0.5-0.5,0.8v4.8c0,0,0,0.1,0,0.1c0,0-0.1,0.1-0.1,0.1c0,0-0.1,0-0.2,0c-0.1,0-0.2,0-0.3,0c-0.1,0-0.2,0-0.3,0
		c-0.1,0-0.2,0-0.2,0c-0.1,0-0.1,0-0.1-0.1c0,0,0-0.1,0-0.1v-7.3c0,0,0-0.1,0-0.1c0,0,0-0.1,0.1-0.1c0,0,0.1,0,0.2,0
		c0.1,0,0.2,0,0.3,0c0.1,0,0.2,0,0.3,0c0.1,0,0.1,0,0.2,0c0,0,0.1,0.1,0.1,0.1c0,0,0,0.1,0,0.1v1.1c0.2-0.3,0.4-0.5,0.6-0.7
		c0.2-0.2,0.3-0.3,0.5-0.4c0.2-0.1,0.3-0.2,0.5-0.2c0.2,0,0.3-0.1,0.5-0.1c0.1,0,0.2,0,0.2,0c0.1,0,0.2,0,0.3,0c0.1,0,0.2,0,0.3,0.1
		c0.1,0,0.1,0.1,0.2,0.1c0,0,0.1,0.1,0.1,0.1c0,0,0,0.1,0,0.1c0,0,0,0.1,0,0.2C75.1,60.5,75.1,60.6,75.1,60.7z"/>
	<path d="M86.7,63.6c0,0.2-0.1,0.4-0.2,0.5c-0.1,0.1-0.2,0.1-0.4,0.1h-4.8c0,0.4,0,0.8,0.1,1.1c0.1,0.3,0.2,0.6,0.4,0.8
		c0.2,0.2,0.4,0.4,0.7,0.5c0.3,0.1,0.7,0.2,1.1,0.2c0.4,0,0.7,0,0.9-0.1c0.3-0.1,0.5-0.1,0.7-0.2c0.2-0.1,0.4-0.1,0.5-0.2
		c0.1-0.1,0.2-0.1,0.3-0.1c0,0,0.1,0,0.1,0c0,0,0.1,0,0.1,0.1c0,0,0,0.1,0,0.2c0,0.1,0,0.2,0,0.2c0,0.1,0,0.1,0,0.2
		c0,0.1,0,0.1,0,0.1s0,0.1,0,0.1c0,0,0,0.1-0.1,0.1c0,0-0.1,0.1-0.3,0.1c-0.1,0.1-0.3,0.1-0.6,0.2c-0.2,0.1-0.5,0.1-0.8,0.2
		c-0.3,0.1-0.6,0.1-1,0.1c-0.6,0-1.1-0.1-1.6-0.3c-0.5-0.2-0.8-0.4-1.1-0.8c-0.3-0.3-0.5-0.7-0.7-1.2c-0.2-0.5-0.2-1.1-0.2-1.7
		c0-0.6,0.1-1.2,0.2-1.7c0.2-0.5,0.4-0.9,0.7-1.3c0.3-0.4,0.7-0.6,1.1-0.8c0.4-0.2,0.9-0.3,1.5-0.3c0.6,0,1.1,0.1,1.5,0.3
		c0.4,0.2,0.7,0.4,1,0.7c0.3,0.3,0.5,0.7,0.6,1.1c0.1,0.4,0.2,0.9,0.2,1.4V63.6z M85.3,63.2c0-0.7-0.1-1.3-0.5-1.7
		c-0.3-0.4-0.8-0.6-1.5-0.6c-0.3,0-0.6,0.1-0.9,0.2c-0.3,0.1-0.5,0.3-0.6,0.5c-0.2,0.2-0.3,0.4-0.4,0.7c-0.1,0.3-0.1,0.6-0.2,0.9
		H85.3z"/>
	<path d="M90.1,67.6c0,0,0,0.1,0,0.1c0,0-0.1,0.1-0.1,0.1c0,0-0.1,0-0.2,0c-0.1,0-0.2,0-0.3,0c-0.1,0-0.2,0-0.3,0
		c-0.1,0-0.2,0-0.2,0c-0.1,0-0.1,0-0.1-0.1c0,0,0-0.1,0-0.1V56.7c0,0,0-0.1,0-0.1c0,0,0.1-0.1,0.1-0.1c0.1,0,0.1,0,0.2,0
		c0.1,0,0.2,0,0.3,0c0.1,0,0.2,0,0.3,0c0.1,0,0.2,0,0.2,0c0,0,0.1,0,0.1,0.1c0,0,0,0.1,0,0.1V67.6z"/>
	<path d="M108,67.6c0,0,0,0.1,0,0.1c0,0-0.1,0.1-0.1,0.1c-0.1,0-0.1,0-0.2,0c-0.1,0-0.2,0-0.3,0c-0.1,0-0.2,0-0.3,0
		c-0.1,0-0.2,0-0.2,0c-0.1,0-0.1,0-0.1-0.1c0,0,0-0.1,0-0.1v-9.2h0l-3.7,9.2c0,0,0,0.1-0.1,0.1c0,0-0.1,0.1-0.1,0.1
		c-0.1,0-0.1,0-0.2,0c-0.1,0-0.2,0-0.3,0c-0.1,0-0.2,0-0.3,0c-0.1,0-0.1,0-0.2,0c-0.1,0-0.1,0-0.1-0.1c0,0-0.1-0.1-0.1-0.1l-3.6-9.2
		h0v9.2c0,0,0,0.1,0,0.1c0,0-0.1,0.1-0.1,0.1c-0.1,0-0.1,0-0.2,0c-0.1,0-0.2,0-0.3,0c-0.1,0-0.2,0-0.3,0c-0.1,0-0.2,0-0.2,0
		c-0.1,0-0.1,0-0.1-0.1c0,0,0-0.1,0-0.1v-9.7c0-0.2,0.1-0.4,0.2-0.5c0.1-0.1,0.3-0.1,0.4-0.1H98c0.2,0,0.3,0,0.5,0
		c0.1,0,0.2,0.1,0.3,0.2c0.1,0.1,0.2,0.2,0.2,0.3c0.1,0.1,0.1,0.2,0.2,0.4l3,7.7h0l3.1-7.6c0.1-0.2,0.1-0.3,0.2-0.4
		c0.1-0.1,0.2-0.2,0.2-0.3c0.1-0.1,0.2-0.1,0.3-0.1s0.2,0,0.4,0h0.9c0.1,0,0.2,0,0.2,0c0.1,0,0.1,0.1,0.2,0.1
		c0.1,0.1,0.1,0.1,0.1,0.2c0,0.1,0,0.2,0,0.3V67.6z"/>
	<path d="M116.9,67.6c0,0,0,0.1,0,0.1c0,0-0.1,0.1-0.1,0.1c0,0-0.1,0-0.2,0c-0.1,0-0.2,0-0.3,0c-0.1,0-0.2,0-0.3,0
		c-0.1,0-0.1,0-0.2,0c0,0-0.1,0-0.1-0.1c0,0,0-0.1,0-0.1v-1c-0.4,0.5-0.8,0.8-1.2,1c-0.4,0.2-0.8,0.3-1.2,0.3
		c-0.5,0-0.9-0.1-1.2-0.2c-0.3-0.2-0.6-0.4-0.8-0.7c-0.2-0.3-0.4-0.6-0.4-1c-0.1-0.4-0.1-0.8-0.1-1.4v-4.5c0,0,0-0.1,0-0.1
		c0,0,0.1-0.1,0.1-0.1c0.1,0,0.1,0,0.2,0c0.1,0,0.2,0,0.3,0c0.1,0,0.2,0,0.3,0c0.1,0,0.2,0,0.2,0c0.1,0,0.1,0.1,0.1,0.1s0,0.1,0,0.1
		v4.3c0,0.4,0,0.8,0.1,1c0.1,0.3,0.2,0.5,0.3,0.7s0.3,0.3,0.5,0.4c0.2,0.1,0.4,0.2,0.7,0.2c0.3,0,0.7-0.1,1-0.4
		c0.3-0.2,0.7-0.6,1.1-1.1v-5.1c0,0,0-0.1,0-0.1c0,0,0.1-0.1,0.1-0.1c0.1,0,0.1,0,0.2,0c0.1,0,0.2,0,0.3,0c0.1,0,0.2,0,0.3,0
		c0.1,0,0.2,0,0.2,0c0,0,0.1,0.1,0.1,0.1c0,0,0,0.1,0,0.1V67.6z"/>
	<path d="M125.8,67.6c0,0,0,0.1,0,0.1c0,0-0.1,0.1-0.1,0.1c0,0-0.1,0-0.2,0c-0.1,0-0.2,0-0.3,0c-0.1,0-0.2,0-0.3,0
		c-0.1,0-0.2,0-0.2,0c0,0-0.1,0-0.1-0.1c0,0,0-0.1,0-0.1v-4.3c0-0.4,0-0.8-0.1-1c-0.1-0.3-0.2-0.5-0.3-0.7c-0.1-0.2-0.3-0.3-0.5-0.4
		c-0.2-0.1-0.4-0.1-0.7-0.1c-0.3,0-0.7,0.1-1,0.4c-0.3,0.2-0.7,0.6-1.1,1.1v5.1c0,0,0,0.1,0,0.1c0,0-0.1,0.1-0.1,0.1
		c0,0-0.1,0-0.2,0c-0.1,0-0.2,0-0.3,0c-0.1,0-0.2,0-0.3,0c-0.1,0-0.2,0-0.2,0c-0.1,0-0.1,0-0.1-0.1c0,0,0-0.1,0-0.1v-7.3
		c0,0,0-0.1,0-0.1s0-0.1,0.1-0.1c0,0,0.1,0,0.2,0c0.1,0,0.2,0,0.3,0c0.1,0,0.2,0,0.3,0c0.1,0,0.1,0,0.2,0c0,0,0.1,0.1,0.1,0.1
		c0,0,0,0.1,0,0.1v1c0.4-0.5,0.8-0.8,1.2-1c0.4-0.2,0.8-0.3,1.2-0.3c0.5,0,0.9,0.1,1.2,0.2s0.6,0.4,0.8,0.7c0.2,0.3,0.4,0.6,0.4,1
		c0.1,0.4,0.1,0.8,0.1,1.3V67.6z"/>
	<path d="M134.5,67.6c0,0,0,0.1,0,0.1c0,0-0.1,0.1-0.1,0.1c0,0-0.1,0-0.2,0c-0.1,0-0.2,0-0.3,0c-0.1,0-0.2,0-0.3,0
		c-0.1,0-0.1,0-0.2,0c0,0-0.1,0-0.1-0.1s0-0.1,0-0.1v-1c-0.4,0.4-0.8,0.7-1.2,1c-0.4,0.2-0.9,0.4-1.4,0.4c-0.5,0-1-0.1-1.4-0.3
		c-0.4-0.2-0.7-0.5-0.9-0.8c-0.2-0.4-0.4-0.8-0.5-1.3c-0.1-0.5-0.2-1-0.2-1.5c0-0.6,0.1-1.2,0.2-1.7c0.1-0.5,0.3-0.9,0.6-1.3
		c0.3-0.4,0.6-0.6,1-0.8c0.4-0.2,0.9-0.3,1.4-0.3c0.4,0,0.8,0.1,1.2,0.3c0.4,0.2,0.7,0.5,1.1,0.8v-4.3c0,0,0-0.1,0-0.1
		c0,0,0.1-0.1,0.1-0.1c0.1,0,0.1,0,0.2,0c0.1,0,0.2,0,0.3,0c0.1,0,0.2,0,0.3,0c0.1,0,0.2,0,0.2,0c0,0,0.1,0,0.1,0.1c0,0,0,0.1,0,0.1
		V67.6z M133.2,62.4c-0.4-0.5-0.7-0.8-1.1-1c-0.3-0.2-0.7-0.4-1.1-0.4c-0.3,0-0.6,0.1-0.9,0.2c-0.2,0.2-0.4,0.4-0.6,0.6
		c-0.1,0.3-0.3,0.6-0.3,0.9c-0.1,0.3-0.1,0.7-0.1,1c0,0.4,0,0.7,0.1,1.1c0.1,0.4,0.2,0.7,0.3,0.9c0.1,0.3,0.3,0.5,0.6,0.7
		c0.2,0.2,0.5,0.2,0.9,0.2c0.2,0,0.4,0,0.5-0.1s0.3-0.1,0.5-0.2c0.2-0.1,0.4-0.3,0.5-0.4c0.2-0.2,0.4-0.4,0.6-0.7V62.4z"/>
	<path d="M143.8,63.8c0,0.6-0.1,1.1-0.2,1.7c-0.2,0.5-0.4,0.9-0.7,1.3c-0.3,0.4-0.7,0.6-1.2,0.9c-0.5,0.2-1,0.3-1.6,0.3
		c-0.6,0-1.1-0.1-1.6-0.3c-0.4-0.2-0.8-0.4-1.1-0.8c-0.3-0.3-0.5-0.8-0.7-1.2c-0.1-0.5-0.2-1-0.2-1.7c0-0.6,0.1-1.1,0.2-1.7
		c0.2-0.5,0.4-0.9,0.7-1.3c0.3-0.4,0.7-0.6,1.2-0.8c0.5-0.2,1-0.3,1.6-0.3c0.6,0,1.1,0.1,1.6,0.3c0.4,0.2,0.8,0.4,1.1,0.8
		c0.3,0.3,0.5,0.8,0.7,1.2C143.8,62.7,143.8,63.2,143.8,63.8z M142.4,63.9c0-0.4,0-0.8-0.1-1.1c-0.1-0.4-0.2-0.7-0.4-0.9
		c-0.2-0.3-0.4-0.5-0.7-0.6c-0.3-0.2-0.7-0.2-1.1-0.2c-0.4,0-0.7,0.1-1,0.2c-0.3,0.1-0.5,0.3-0.7,0.6c-0.2,0.3-0.3,0.6-0.4,0.9
		c-0.1,0.4-0.1,0.7-0.1,1.2c0,0.4,0,0.8,0.1,1.1c0.1,0.4,0.2,0.7,0.4,0.9c0.2,0.3,0.4,0.5,0.7,0.6c0.3,0.2,0.7,0.2,1.1,0.2
		c0.4,0,0.7-0.1,1-0.2c0.3-0.1,0.5-0.3,0.7-0.6c0.2-0.3,0.3-0.6,0.4-0.9C142.4,64.7,142.4,64.3,142.4,63.9z"/>
</g>
</svg>
