<?xml version="1.0" encoding="utf-8"?>
<!-- Generator: Adobe Illustrator 21.0.2, SVG Export Plug-In . SVG Version: 6.00 Build 0)  -->
<svg version="1.1" id="Capa_1" xmlns="http://www.w3.org/2000/svg" xmlns:xlink="http://www.w3.org/1999/xlink" x="0px" y="0px"
	 viewBox="0 0 300 145.5" style="enable-background:new 0 0 300 145.5;" xml:space="preserve">
<style type="text/css">
	.st0{fill-rule:evenodd;clip-rule:evenodd;}
	.st1{fill:#06A039;}
	.st2{fill:#E52320;}
</style>
<g>
	<path class="st0" d="M299.1,94.1c-0.6,1.1-1.4,1.9-2.5,2.5c-1.1,0.6-2.2,0.9-3.4,0.9s-2.3-0.3-3.4-0.9c-1.1-0.6-1.9-1.4-2.5-2.5
		c-0.6-1.1-0.9-2.2-0.9-3.4c0-1.2,0.3-2.3,0.9-3.4c0.6-1.1,1.4-1.9,2.5-2.5c1.1-0.6,2.2-0.9,3.3-0.9c1.1,0,2.2,0.3,3.3,0.9
		c1.1,0.6,1.9,1.4,2.5,2.5c0.6,1.1,0.9,2.2,0.9,3.4C300,91.9,299.7,93,299.1,94.1z M298.1,87.9c-0.5-0.9-1.2-1.6-2.1-2.1
		c-0.9-0.5-1.8-0.7-2.8-0.7c-1,0-1.9,0.2-2.8,0.7c-0.9,0.5-1.6,1.2-2.1,2.1c-0.5,0.9-0.8,1.8-0.8,2.8c0,1,0.2,1.9,0.7,2.8
		c0.5,0.9,1.2,1.6,2.1,2.1c0.9,0.5,1.8,0.7,2.8,0.7c1,0,1.9-0.2,2.8-0.7c0.9-0.5,1.6-1.2,2.1-2.1c0.5-0.9,0.7-1.8,0.7-2.8
		C298.9,89.8,298.6,88.8,298.1,87.9z M295.4,92.5c0.2,1.1,0.4,1.8,0.6,2.1h-1c-0.1-0.2-0.3-0.9-0.5-1.8c-0.2-1-0.6-1.4-1.5-1.5h-0.9
		v3.3h-1v-7.4c0.5-0.1,1.2-0.2,1.9-0.2c1,0,1.7,0.2,2.2,0.6c0.4,0.3,0.6,0.8,0.6,1.4c0,1-0.6,1.6-1.4,1.9v0
		C294.9,91.2,295.2,91.7,295.4,92.5z M294.8,89.1c0-1-0.7-1.4-1.7-1.4c-0.5,0-0.8,0-1,0.1v2.7h1C294.1,90.6,294.8,90,294.8,89.1z"/>
	<g>
		<g>
			<path class="st1" d="M58.2,94.3c-0.3,0.9-0.6,1.5-1,2.1c-0.4,0.5-1.1,0.9-2,1.2c-0.9,0.3-2.1,0.5-3.7,0.5
				c-1.6,0.1-3.6,0.1-6.1,0.1c-2,0-3.7,0-5.2,0c-1.4,0-2.6-0.1-3.6-0.2c-1-0.1-1.8-0.3-2.4-0.5c-0.6-0.2-1.2-0.5-1.6-0.8
				c-0.4-0.3-0.8-0.7-1-1.1c-0.2-0.4-0.4-1-0.6-1.6L2.1,7.8C1.5,6,1.1,4.6,1,3.5C0.9,2.5,1.1,1.7,1.7,1.2c0.6-0.5,1.7-0.9,3.2-1
				C6.4,0.1,8.5,0,11.2,0c2.3,0,4.1,0.1,5.4,0.2c1.3,0.1,2.3,0.3,3,0.5c0.7,0.3,1.2,0.6,1.5,1.1c0.3,0.5,0.5,1.1,0.8,1.9l23.7,75.1
				h0.1L68.9,4.1c0.2-0.9,0.5-1.5,0.8-2.1c0.3-0.5,0.8-0.9,1.5-1.2C72,0.5,73,0.3,74.4,0.2C75.7,0.1,77.6,0,79.9,0
				c2.3,0,4.1,0.1,5.4,0.2c1.3,0.2,2.2,0.5,2.6,1.1c0.5,0.6,0.6,1.4,0.5,2.4c-0.2,1.1-0.6,2.5-1.2,4.2L58.2,94.3z"/>
		</g>
	</g>
	<g>
		<g>
			<path class="st2" d="M278.2,95.1c0,0.5-0.1,1-0.4,1.4c-0.3,0.4-0.8,0.7-1.5,1c-0.7,0.3-1.7,0.5-2.9,0.6s-2.7,0.2-4.6,0.2
				c-1.8,0-3.3-0.1-4.5-0.2s-2.2-0.4-2.9-0.6c-0.7-0.3-1.2-0.6-1.5-1c-0.3-0.4-0.5-0.9-0.5-1.4V15.9h-0.2L231.1,95
				c-0.2,0.7-0.5,1.2-1,1.6c-0.5,0.4-1.1,0.8-1.8,1s-1.8,0.4-3,0.5c-1.2,0.1-2.7,0.1-4.4,0.1c-1.7,0-3.2-0.1-4.4-0.2
				c-1.2-0.1-2.2-0.3-3-0.6c-0.8-0.3-1.4-0.6-1.8-1c-0.5-0.4-0.8-0.9-0.9-1.4l-27.2-79.1h-0.2v79.2c0,0.5-0.1,1-0.4,1.4
				c-0.3,0.4-0.8,0.7-1.5,1c-0.8,0.3-1.7,0.5-2.9,0.6c-1.2,0.2-2.7,0.2-4.6,0.2c-1.8,0-3.3-0.1-4.5-0.2c-1.2-0.2-2.2-0.4-2.9-0.6
				c-0.7-0.3-1.2-0.6-1.5-1c-0.3-0.4-0.4-0.9-0.4-1.4V8.4c0-2.6,0.7-4.5,2-5.9s3.2-2,5.4-2h12.9c2.3,0,4.3,0.2,5.9,0.6
				c1.7,0.4,3.1,1,4.3,1.9c1.2,0.9,2.2,2,3,3.5c0.8,1.4,1.5,3.2,2.1,5.3l21.1,58h0.3l21.8-57.8c0.7-2.1,1.4-3.9,2.1-5.3
				c0.8-1.5,1.7-2.6,2.7-3.5c1-0.9,2.2-1.5,3.6-1.9c1.4-0.4,3-0.6,4.9-0.6h13.3c1.4,0,2.5,0.2,3.5,0.5c1,0.4,1.8,0.9,2.4,1.5
				c0.6,0.7,1.1,1.5,1.4,2.5c0.3,1,0.5,2.1,0.5,3.3V95.1z"/>
		</g>
	</g>
	<g>
		<g>
			<path d="M139.5,20.3c1.7,0,3.1,0,4.2,0.1c1.1,0.1,1.8,0.3,2.3,0.5c0.5,0.3,0.7,0.7,0.7,1.2c0,0.5-0.2,1.1-0.7,1.9l-13.2,24.1
				l14.6,26.5c0.3,0.7,0.5,1.2,0.4,1.7c0,0.4-0.3,0.8-0.9,1.1c-0.6,0.3-1.4,0.5-2.6,0.6c-1.2,0.1-2.7,0.1-4.6,0.1
				c-1.8,0-3.2,0-4.3-0.1c-1.1-0.1-1.9-0.2-2.6-0.4c-0.6-0.2-1.1-0.4-1.4-0.7c-0.3-0.3-0.5-0.6-0.7-1L121,57.2l-9.8,18.9
				c-0.2,0.4-0.4,0.7-0.7,1c-0.3,0.3-0.7,0.5-1.3,0.7c-0.6,0.2-1.4,0.3-2.4,0.4c-1,0.1-2.4,0.1-4,0.1c-1.7,0-3.1-0.1-4.2-0.1
				c-1-0.1-1.8-0.3-2.3-0.6c-0.5-0.3-0.7-0.6-0.7-1.1c0-0.4,0.1-1,0.5-1.7l14.7-26.1L97.3,24.1c-0.4-0.7-0.5-1.3-0.6-1.8
				c0-0.5,0.2-0.9,0.7-1.2c0.5-0.3,1.3-0.5,2.5-0.6c1.1-0.1,2.7-0.2,4.6-0.2c1.7,0,3.1,0,4.2,0.1c1.1,0.1,1.9,0.1,2.5,0.3
				c0.6,0.1,1,0.3,1.3,0.6c0.3,0.3,0.5,0.6,0.7,1l9.5,17.7l9.4-17.7c0.1-0.3,0.3-0.6,0.5-0.8c0.2-0.2,0.6-0.4,1.1-0.6
				c0.5-0.2,1.2-0.3,2.1-0.4C136.8,20.4,138,20.3,139.5,20.3 M139.5,18.4c-1.6,0-2.9,0-3.8,0.1c-1,0.1-1.9,0.2-2.5,0.4
				c-0.8,0.3-1.5,0.6-1.9,1.1c-0.4,0.4-0.7,0.9-0.9,1.4l-7.6,14.4L115,21.3c-0.3-0.6-0.7-1.1-1.1-1.5c-0.6-0.5-1.3-0.9-2.3-1.1
				c-0.7-0.1-1.6-0.2-2.7-0.3c-1.1-0.1-2.5-0.1-4.3-0.1c-2,0-3.6,0.1-4.8,0.2c-1.4,0.2-2.4,0.4-3.2,0.8c-1.2,0.6-1.8,1.7-1.8,3
				c0,0.8,0.3,1.6,0.8,2.6l0,0l0,0l13,23.6L94.5,73.8l0,0l0,0c-0.5,1-0.8,1.9-0.7,2.7c0.1,1.1,0.7,2.1,1.7,2.7
				c0.7,0.4,1.7,0.7,3.1,0.8c1.1,0.1,2.6,0.2,4.4,0.2c1.7,0,3.1,0,4.2-0.1c1.2-0.1,2.1-0.2,2.9-0.4c0.9-0.3,1.5-0.6,2-1.1
				c0.5-0.4,0.8-1,1.1-1.6l8.1-15.5l8.1,15.5c0.3,0.6,0.7,1.2,1.2,1.6c0.5,0.4,1.2,0.8,2.1,1.1c0.8,0.2,1.7,0.4,3,0.4
				c1.1,0.1,2.6,0.1,4.4,0.1c1.9,0,3.5-0.1,4.7-0.2c1.4-0.1,2.5-0.4,3.3-0.8c1.6-0.8,1.9-2.1,1.9-2.7c0-0.8-0.2-1.6-0.6-2.6l0-0.1
				l0-0.1L135,48.2L147.7,25c0.6-1.1,0.9-2,0.9-2.8c0-1.2-0.5-2.3-1.6-2.9c-0.7-0.5-1.7-0.7-3.1-0.8
				C142.8,18.4,141.3,18.4,139.5,18.4L139.5,18.4z"/>
		</g>
	</g>
	<g>
		<g>
			<path d="M7.2,138.9L0,116.7h4.4l3,10.1c0.9,2.8,1.6,5.4,2.2,8.1h0.1c0.6-2.6,1.4-5.4,2.3-8.1l3.2-10.2h4.3l-7.7,22.3H7.2z"/>
		</g>
		<g>
			<path d="M25.4,118.4c0,1.2-0.9,2.2-2.3,2.2c-1.4,0-2.2-1-2.2-2.2c0-1.3,0.9-2.2,2.3-2.2C24.5,116.1,25.4,117.1,25.4,118.4z
				 M21.1,138.9v-16.1h4.1v16.1H21.1z"/>
		</g>
		<g>
			<path d="M32.4,132c0.1,2.9,2.4,4.2,5,4.2c1.9,0,3.2-0.3,4.5-0.7l0.6,2.8c-1.4,0.6-3.3,1-5.6,1c-5.2,0-8.3-3.2-8.3-8.1
				c0-4.5,2.7-8.7,7.9-8.7c5.2,0,6.9,4.3,6.9,7.8c0,0.8-0.1,1.4-0.1,1.7H32.4z M39.5,129.2c0-1.5-0.6-3.9-3.3-3.9
				c-2.5,0-3.6,2.3-3.7,3.9H39.5z"/>
		</g>
		<g>
			<path d="M46.6,127.6c0-1.9,0-3.4-0.1-4.8H50l0.2,2.4h0.1c0.7-1.3,2.4-2.8,5.1-2.8c2.8,0,5.7,1.8,5.7,6.9v9.6h-4.1v-9.1
				c0-2.3-0.9-4.1-3.1-4.1c-1.6,0-2.7,1.2-3.2,2.4c-0.1,0.4-0.2,0.9-0.2,1.3v9.5h-4.1V127.6z"/>
		</g>
		<g>
			<path d="M80.4,115.5v18.9c0,1.7,0.1,3.4,0.1,4.5h-3.6l-0.2-2.5h-0.1c-1,1.8-2.9,2.9-5.3,2.9c-3.8,0-6.9-3.3-6.9-8.2
				c0-5.4,3.3-8.6,7.2-8.6c2.2,0,3.8,0.9,4.5,2.1h0.1v-9.1H80.4z M76.3,129.6c0-0.3,0-0.7-0.1-1.1c-0.4-1.6-1.7-2.9-3.5-2.9
				c-2.6,0-4.1,2.3-4.1,5.3c0,2.9,1.5,5.1,4,5.1c1.7,0,3.1-1.1,3.5-2.9c0.1-0.4,0.1-0.8,0.1-1.2V129.6z"/>
		</g>
		<g>
			<path d="M100,130.7c0,5.9-4.2,8.6-8.3,8.6c-4.6,0-8.1-3.1-8.1-8.3c0-5.3,3.5-8.5,8.3-8.5C96.8,122.5,100,125.9,100,130.7z
				 M87.9,130.9c0,3.1,1.5,5.5,4,5.5c2.3,0,3.9-2.3,3.9-5.5c0-2.5-1.1-5.4-3.9-5.4C89.1,125.5,87.9,128.2,87.9,130.9z"/>
		</g>
		<g>
			<path d="M110.2,128.2c0-2.1-0.1-3.8-0.1-5.4h3.6l0.2,2.5h0.1c1.2-1.8,3.1-2.8,5.5-2.8c3.7,0,6.8,3.2,6.8,8.2
				c0,5.8-3.7,8.6-7.3,8.6c-2,0-3.7-0.9-4.5-2.1h-0.1v8.3h-4.1V128.2z M114.3,132.2c0,0.4,0,0.8,0.1,1.1c0.4,1.7,1.9,2.8,3.6,2.8
				c2.6,0,4.1-2.1,4.1-5.3c0-2.8-1.4-5.2-4-5.2c-1.7,0-3.2,1.2-3.6,3c-0.1,0.3-0.2,0.7-0.2,1V132.2z"/>
		</g>
		<g>
			<path d="M144.9,130.7c0,5.9-4.2,8.6-8.3,8.6c-4.6,0-8.1-3.1-8.1-8.3c0-5.3,3.5-8.5,8.3-8.5C141.7,122.5,144.9,125.9,144.9,130.7z
				 M132.7,130.9c0,3.1,1.5,5.5,4,5.5c2.3,0,3.9-2.3,3.9-5.5c0-2.5-1.1-5.4-3.9-5.4C133.9,125.5,132.7,128.2,132.7,130.9z"/>
		</g>
		<g>
			<path d="M148.2,128c0-2.2,0-3.7-0.1-5.2h3.5l0.1,3.1h0.1c0.8-2.3,2.7-3.4,4.4-3.4c0.4,0,0.6,0,1,0.1v3.8
				c-0.3-0.1-0.7-0.1-1.2-0.1c-2,0-3.3,1.3-3.6,3.1c-0.1,0.4-0.1,0.8-0.1,1.3v8.3h-4.1V128z"/>
		</g>
		<g>
			<path d="M169.7,132c0.1,2.9,2.4,4.2,5,4.2c1.9,0,3.2-0.3,4.5-0.7l0.6,2.8c-1.4,0.6-3.3,1-5.6,1c-5.2,0-8.3-3.2-8.3-8.1
				c0-4.5,2.7-8.7,7.9-8.7c5.2,0,6.9,4.3,6.9,7.8c0,0.8-0.1,1.4-0.1,1.7H169.7z M176.8,129.2c0-1.5-0.6-3.9-3.3-3.9
				c-2.5,0-3.6,2.3-3.7,3.9H176.8z"/>
		</g>
		<g>
			<path d="M183.9,115.5h4.1v23.5h-4.1V115.5z"/>
		</g>
		<g>
			<path d="M218.2,129.9c-0.1-2.9-0.3-6.3-0.3-9.4h-0.1c-0.7,2.7-1.7,5.7-2.6,8.5l-3.2,9.7h-3.1l-3-9.5c-0.9-2.8-1.7-5.9-2.2-8.7
				h-0.1c-0.1,2.9-0.2,6.4-0.4,9.5l-0.5,9h-3.8l1.5-22.3h5.4l2.9,9c0.8,2.6,1.5,5.3,2,7.7h0.1c0.6-2.4,1.4-5.2,2.2-7.8l3.1-8.9h5.3
				l1.3,22.3h-4L218.2,129.9z"/>
		</g>
		<g>
			<path d="M241,134.1c0,1.9,0.1,3.5,0.1,4.8h-3.6l-0.2-2.4h-0.1c-0.7,1.2-2.3,2.8-5.2,2.8c-2.9,0-5.6-1.8-5.6-7v-9.5h4.1v8.8
				c0,2.7,0.9,4.4,3,4.4c1.6,0,2.7-1.2,3.1-2.2c0.1-0.4,0.2-0.8,0.2-1.3v-9.7h4.1V134.1z"/>
		</g>
		<g>
			<path d="M245.4,127.6c0-1.9,0-3.4-0.1-4.8h3.6l0.2,2.4h0.1c0.7-1.3,2.4-2.8,5.1-2.8c2.8,0,5.7,1.8,5.7,6.9v9.6h-4.1v-9.1
				c0-2.3-0.9-4.1-3.1-4.1c-1.6,0-2.7,1.2-3.2,2.4c-0.1,0.4-0.2,0.9-0.2,1.3v9.5h-4.1V127.6z"/>
		</g>
		<g>
			<path d="M279.1,115.5v18.9c0,1.7,0.1,3.4,0.1,4.5h-3.6l-0.2-2.5h-0.1c-1,1.8-2.9,2.9-5.3,2.9c-3.8,0-6.9-3.3-6.9-8.2
				c0-5.4,3.3-8.6,7.2-8.6c2.2,0,3.8,0.9,4.5,2.1h0.1v-9.1H279.1z M275,129.6c0-0.3,0-0.7-0.1-1.1c-0.4-1.6-1.7-2.9-3.5-2.9
				c-2.6,0-4.1,2.3-4.1,5.3c0,2.9,1.5,5.1,4,5.1c1.7,0,3.1-1.1,3.5-2.9c0.1-0.4,0.1-0.8,0.1-1.2V129.6z"/>
		</g>
		<g>
			<path d="M298.8,130.7c0,5.9-4.2,8.6-8.3,8.6c-4.6,0-8.1-3.1-8.1-8.3c0-5.3,3.5-8.5,8.3-8.5C295.6,122.5,298.8,125.9,298.8,130.7z
				 M286.6,130.9c0,3.1,1.5,5.5,4,5.5c2.3,0,3.9-2.3,3.9-5.5c0-2.5-1.1-5.4-3.9-5.4C287.8,125.5,286.6,128.2,286.6,130.9z"/>
		</g>
	</g>
</g>
<g id="Registrado">
</g>
</svg>
