<?xml version="1.0" encoding="utf-8"?>
<!-- Generator: Adobe Illustrator 18.0.0, SVG Export Plug-In . SVG Version: 6.00 Build 0)  -->
<!DOCTYPE svg PUBLIC "-//W3C//DTD SVG 1.1//EN" "http://www.w3.org/Graphics/SVG/1.1/DTD/svg11.dtd">
<svg version="1.1" id="Layer_1" xmlns="http://www.w3.org/2000/svg" xmlns:xlink="http://www.w3.org/1999/xlink" x="0px" y="0px"
	 viewBox="0 0 290.5 144.1" enable-background="new 0 0 290.5 144.1" xml:space="preserve">
<path fill="#12AF57" d="M34.8,102.5L0.1,0h22.9l22.4,71.9L67.5,0h22.2L55,102.5H34.8z"/>
<path fill="#FD0017" d="M249.6,102.5V32.3l-19.1,70.2h-21.3l-19-69.9v69.9h-19.9V0h31.5l18.5,75.2L238.8,0h30.9v102.5H249.6z"/>
<g>
	<path fill="none" stroke="#000000" stroke-width="2" d="M136.1,78.3l-9.4-16.2l-9.2,16.2h-17.1l18.1-27.5l-17.6-26.4h17.2l9.1,15.7
		l9.2-15.7H153l-17.9,26.4l18.4,27.5H136.1z"/>
</g>
<g>
	<g>
		<path d="M284.9,96.3L284.9,96.3c0.8-0.3,1.4-0.9,1.4-1.9c0-0.6-0.2-1.1-0.6-1.4c-0.5-0.4-1.1-0.6-2.1-0.6c-0.7,0-1.3,0.1-1.8,0.2
			v7.3h1v-3.2h0.9c0.9,0,1.3,0.4,1.5,1.4c0.2,0.9,0.4,1.5,0.5,1.7h1c-0.2-0.3-0.3-1-0.6-2C285.8,97,285.5,96.5,284.9,96.3z
			 M283.7,96h-0.9v-2.7c0.1,0,0.5-0.1,0.9-0.1c1,0,1.7,0.4,1.7,1.4C285.3,95.4,284.7,96,283.7,96z"/>
	</g>
	<g>
		<path d="M283.9,89.5c-3.6,0-6.6,3-6.6,6.6s3,6.6,6.6,6.6c3.6,0,6.6-3,6.6-6.6S287.5,89.5,283.9,89.5z M283.9,101.6
			c-3,0-5.5-2.5-5.5-5.5s2.5-5.5,5.5-5.5c3,0,5.5,2.5,5.5,5.5S286.9,101.6,283.9,101.6z"/>
	</g>
</g>
<g>
	<path d="M7.3,136.6L0,115.1h4.8l4.7,15.1l4.7-15.1h4.7l-7.3,21.5H7.3z"/>
	<path d="M19.9,118.7v-3.9h4.2v3.9H19.9z M19.9,136.6v-15.9h4.2v15.9H19.9z"/>
	<path d="M29.7,129.7c0.1,1.2,0.4,2.2,1.1,2.9c0.6,0.7,1.5,1.1,2.5,1.1c0.7,0,1.3-0.2,1.8-0.5c0.5-0.3,0.9-0.7,1-1.3h4.3
		c-0.5,1.6-1.4,2.9-2.6,3.8s-2.7,1.3-4.4,1.3c-5.3,0-8-2.9-8-8.7c0-1.2,0.2-2.3,0.5-3.3c0.3-1,0.8-1.8,1.5-2.6
		c0.7-0.7,1.5-1.3,2.4-1.6c0.9-0.4,2-0.6,3.3-0.6c2.5,0,4.3,0.8,5.6,2.4s1.9,3.9,1.9,7.1H29.7z M36.3,127.1c0-0.6-0.1-1.1-0.3-1.5
		c-0.2-0.4-0.4-0.8-0.7-1.1s-0.6-0.5-1-0.6c-0.4-0.1-0.8-0.2-1.2-0.2c-0.8,0-1.6,0.3-2.2,0.9c-0.6,0.6-1,1.5-1.1,2.6H36.3z"/>
	<path d="M52.2,136.6v-9.6c0-1.2-0.2-2.1-0.6-2.5c-0.4-0.4-1.1-0.6-2.1-0.6c-2.2,0-3.3,1.2-3.3,3.7v9.1H42v-15.9h4v2.3
		c0.5-0.9,1.2-1.6,2-2.1c0.8-0.5,1.9-0.7,3.2-0.7c0.8,0,1.5,0.1,2.1,0.3c0.6,0.2,1.2,0.6,1.7,1s0.8,1,1.1,1.7
		c0.3,0.7,0.4,1.4,0.4,2.3v11H52.2z"/>
	<path d="M69.1,136.6l0-1.9c-1,1.6-2.4,2.4-4.4,2.4c-1,0-1.9-0.2-2.8-0.6c-0.8-0.4-1.6-0.9-2.2-1.7c-0.6-0.7-1.1-1.6-1.4-2.7
		s-0.5-2.3-0.5-3.6c0-1.2,0.1-2.3,0.4-3.3c0.3-1,0.7-1.9,1.3-2.6c0.6-0.7,1.2-1.3,2.1-1.7c0.8-0.4,1.7-0.6,2.8-0.6
		c2,0,3.5,0.8,4.7,2.5v-7.9h4.1v21.7H69.1z M65.6,133.6c1,0,1.9-0.4,2.5-1.3c0.7-0.8,1-1.9,1-3.3c0-3.5-1.2-5.2-3.5-5.2
		c-2.4,0-3.6,1.6-3.6,4.9c0,1.4,0.3,2.6,1,3.5C63.7,133.1,64.6,133.6,65.6,133.6z"/>
	<path d="M82.7,137c-1.3,0-2.4-0.2-3.5-0.6c-1-0.4-1.9-1-2.6-1.7S75.4,133,75,132c-0.4-1-0.5-2.2-0.5-3.4c0-1.3,0.2-2.4,0.6-3.4
		c0.4-1,0.9-1.9,1.6-2.7s1.6-1.3,2.6-1.7c1-0.4,2.1-0.6,3.4-0.6c1.3,0,2.4,0.2,3.4,0.6c1,0.4,1.8,1,2.5,1.7s1.2,1.6,1.6,2.6
		c0.4,1,0.6,2.2,0.6,3.5c0,1.3-0.2,2.4-0.6,3.4c-0.4,1-0.9,1.9-1.6,2.6S87,136,86,136.4S83.9,137,82.7,137z M82.7,133.5
		c2.6,0,3.8-1.6,3.8-4.9c0-3.2-1.3-4.8-3.8-4.8c-2.6,0-3.9,1.6-3.9,4.8C78.8,131.9,80.1,133.5,82.7,133.5z"/>
	<path d="M100.1,144.1v-23.5h4l0,1.9c1-1.6,2.4-2.4,4.4-2.4c1,0,1.9,0.2,2.8,0.6c0.9,0.4,1.6,0.9,2.2,1.7c0.6,0.7,1.1,1.6,1.4,2.7
		c0.3,1.1,0.5,2.3,0.5,3.6c0,1.2-0.1,2.3-0.4,3.3s-0.7,1.9-1.3,2.6c-0.6,0.7-1.2,1.3-2.1,1.7c-0.8,0.4-1.7,0.6-2.8,0.6
		c-2,0-3.5-0.8-4.7-2.5v9.6H100.1z M107.6,133.4c2.4,0,3.6-1.6,3.6-4.9c0-1.4-0.3-2.6-1-3.5c-0.7-0.9-1.5-1.3-2.6-1.3
		c-1,0-1.9,0.4-2.5,1.3c-0.7,0.8-1,1.9-1,3.3C104.1,131.7,105.3,133.4,107.6,133.4z"/>
	<path d="M124.7,137c-1.3,0-2.4-0.2-3.5-0.6c-1-0.4-1.9-1-2.6-1.7s-1.2-1.6-1.6-2.7c-0.4-1-0.5-2.2-0.5-3.4c0-1.3,0.2-2.4,0.6-3.4
		c0.4-1,0.9-1.9,1.6-2.7s1.6-1.3,2.6-1.7c1-0.4,2.1-0.6,3.4-0.6c1.3,0,2.4,0.2,3.4,0.6c1,0.4,1.8,1,2.5,1.7s1.2,1.6,1.6,2.6
		c0.4,1,0.6,2.2,0.6,3.5c0,1.3-0.2,2.4-0.6,3.4c-0.4,1-0.9,1.9-1.6,2.6s-1.6,1.3-2.6,1.7S125.9,137,124.7,137z M124.7,133.5
		c2.6,0,3.8-1.6,3.8-4.9c0-3.2-1.3-4.8-3.8-4.8c-2.6,0-3.9,1.6-3.9,4.8C120.8,131.9,122.1,133.5,124.7,133.5z"/>
	<path d="M134.1,136.6v-15.9h3.9v1.9c0.3-0.5,0.7-1,1.1-1.3c0.4-0.3,0.8-0.5,1.2-0.7c0.4-0.2,0.8-0.3,1.2-0.3s0.8-0.1,1.3-0.1h0.6
		v4.3c-0.4-0.1-0.8-0.1-1.2-0.1c-2.6,0-3.9,1.3-3.9,3.9v8.3H134.1z"/>
	<path d="M156.2,129.7c0.1,1.2,0.4,2.2,1.1,2.9c0.6,0.7,1.5,1.1,2.5,1.1c0.7,0,1.3-0.2,1.8-0.5c0.5-0.3,0.9-0.7,1-1.3h4.3
		c-0.5,1.6-1.4,2.9-2.6,3.8s-2.7,1.3-4.4,1.3c-5.3,0-8-2.9-8-8.7c0-1.2,0.2-2.3,0.5-3.3c0.3-1,0.8-1.8,1.5-2.6
		c0.7-0.7,1.5-1.3,2.4-1.6c0.9-0.4,2-0.6,3.3-0.6c2.5,0,4.3,0.8,5.6,2.4s1.9,3.9,1.9,7.1H156.2z M162.8,127.1c0-0.6-0.1-1.1-0.3-1.5
		c-0.2-0.4-0.4-0.8-0.7-1.1s-0.6-0.5-1-0.6c-0.4-0.1-0.8-0.2-1.2-0.2c-0.8,0-1.6,0.3-2.2,0.9c-0.6,0.6-1,1.5-1.1,2.6H162.8z"/>
	<path d="M168.4,136.6v-21.7h4.2v21.7H168.4z"/>
	<path d="M198.8,136.6v-14.7l-4,14.7h-4.5l-4-14.7v14.7h-4.2v-21.5h6.6l3.9,15.8l3.9-15.8h6.5v21.5H198.8z"/>
	<path d="M215,136.6v-2.2c-1.1,1.8-2.7,2.7-5,2.7c-0.8,0-1.5-0.1-2.2-0.4c-0.7-0.3-1.2-0.7-1.7-1.2c-0.5-0.5-0.8-1.1-1.1-1.8
		c-0.3-0.7-0.4-1.5-0.4-2.4v-10.5h4.2v9.8c0,2,0.9,3,2.7,3c1.1,0,1.9-0.3,2.4-1c0.6-0.7,0.8-1.5,0.8-2.6v-9.2h4.2v15.9H215z"/>
	<path d="M230.8,136.6v-9.6c0-1.2-0.2-2.1-0.6-2.5c-0.4-0.4-1.1-0.6-2.1-0.6c-2.2,0-3.3,1.2-3.3,3.7v9.1h-4.2v-15.9h4v2.3
		c0.5-0.9,1.2-1.6,2-2.1c0.8-0.5,1.9-0.7,3.2-0.7c0.8,0,1.5,0.1,2.1,0.3c0.6,0.2,1.2,0.6,1.7,1s0.8,1,1.1,1.7
		c0.3,0.7,0.4,1.4,0.4,2.3v11H230.8z"/>
	<path d="M247.8,136.6l0-1.9c-1,1.6-2.4,2.4-4.4,2.4c-1,0-1.9-0.2-2.8-0.6c-0.8-0.4-1.6-0.9-2.2-1.7c-0.6-0.7-1.1-1.6-1.4-2.7
		s-0.5-2.3-0.5-3.6c0-1.2,0.1-2.3,0.4-3.3c0.3-1,0.7-1.9,1.3-2.6c0.6-0.7,1.2-1.3,2.1-1.7c0.8-0.4,1.7-0.6,2.8-0.6
		c2,0,3.5,0.8,4.7,2.5v-7.9h4.1v21.7H247.8z M244.3,133.6c1,0,1.9-0.4,2.5-1.3c0.7-0.8,1-1.9,1-3.3c0-3.5-1.2-5.2-3.5-5.2
		c-2.4,0-3.6,1.6-3.6,4.9c0,1.4,0.3,2.6,1,3.5C242.3,133.1,243.2,133.6,244.3,133.6z"/>
	<path d="M261.3,137c-1.3,0-2.4-0.2-3.5-0.6c-1-0.4-1.9-1-2.6-1.7s-1.2-1.6-1.6-2.7c-0.4-1-0.5-2.2-0.5-3.4c0-1.3,0.2-2.4,0.6-3.4
		c0.4-1,0.9-1.9,1.6-2.7s1.6-1.3,2.6-1.7c1-0.4,2.1-0.6,3.4-0.6c1.3,0,2.4,0.2,3.4,0.6c1,0.4,1.8,1,2.5,1.7s1.2,1.6,1.6,2.6
		c0.4,1,0.6,2.2,0.6,3.5c0,1.3-0.2,2.4-0.6,3.4c-0.4,1-0.9,1.9-1.6,2.6s-1.6,1.3-2.6,1.7S262.5,137,261.3,137z M261.3,133.5
		c2.6,0,3.8-1.6,3.8-4.9c0-3.2-1.3-4.8-3.8-4.8c-2.6,0-3.9,1.6-3.9,4.8C257.5,131.9,258.7,133.5,261.3,133.5z"/>
</g>
</svg>
