<?xml version="1.0" encoding="utf-8"?>
<!-- Generator: Adobe Illustrator 18.0.0, SVG Export Plug-In . SVG Version: 6.00 Build 0)  -->
<!DOCTYPE svg PUBLIC "-//W3C//DTD SVG 1.1//EN" "http://www.w3.org/Graphics/SVG/1.1/DTD/svg11.dtd">
<svg version="1.1" id="Layer_1" xmlns="http://www.w3.org/2000/svg" xmlns:xlink="http://www.w3.org/1999/xlink" x="0px" y="0px"
	 viewBox="0 0 290.5 144.1" enable-background="new 0 0 290.5 144.1" xml:space="preserve">
<g>
	<path d="M34.4,102.6L-0.3,0.1h22.9l22.4,71.9L67.2,0.1h22.2L54.6,102.6H34.4z"/>
	<path d="M249.2,102.6V32.4L230,102.6h-21.3l-19-69.9v69.9h-19.9V0.1h31.5l18.5,75.2l18.5-75.2h30.9v102.5H249.2z"/>
</g>
<g>
	<path fill="none" stroke="#1d2330" stroke-width="2" d="M135.7,78.4l-9.4-16.2L117,78.4H99.9L118,50.9l-17.6-26.4h17.2l9.1,15.7
		l9.2-15.7h16.6l-17.9,26.4l18.4,27.5H135.7z"/>
</g>
<g>
	<g>
		<path d="M284.5,96.4L284.5,96.4c0.8-0.3,1.4-0.9,1.4-1.9c0-0.6-0.2-1.1-0.6-1.4c-0.5-0.4-1.1-0.6-2.1-0.6c-0.7,0-1.3,0.1-1.8,0.2
			v7.3h1v-3.2h0.9c0.9,0,1.3,0.4,1.5,1.4c0.2,0.9,0.4,1.5,0.5,1.7h1c-0.2-0.3-0.3-1-0.6-2C285.4,97.2,285.1,96.6,284.5,96.4z
			 M283.3,96.1h-0.9v-2.7c0.1,0,0.5-0.1,0.9-0.1c1,0,1.7,0.4,1.7,1.4C284.9,95.5,284.3,96.1,283.3,96.1z"/>
	</g>
	<g>
		<path d="M283.5,89.6c-3.6,0-6.6,3-6.6,6.6s3,6.6,6.6,6.6c3.6,0,6.6-3,6.6-6.6S287.1,89.6,283.5,89.6z M283.5,101.8
			c-3,0-5.5-2.5-5.5-5.5s2.5-5.5,5.5-5.5c3,0,5.5,2.5,5.5,5.5S286.5,101.8,283.5,101.8z"/>
	</g>
</g>
<g>
	<path d="M6.9,136.7l-7.3-21.5h4.8l4.7,15.1l4.7-15.1h4.7l-7.3,21.5H6.9z"/>
	<path d="M19.5,118.9v-3.9h4.2v3.9H19.5z M19.5,136.7v-15.9h4.2v15.9H19.5z"/>
	<path d="M29.3,129.8c0.1,1.2,0.4,2.2,1.1,2.9c0.6,0.7,1.5,1.1,2.5,1.1c0.7,0,1.3-0.2,1.8-0.5c0.5-0.3,0.9-0.7,1-1.3h4.3
		c-0.5,1.6-1.4,2.9-2.6,3.8s-2.7,1.3-4.4,1.3c-5.3,0-8-2.9-8-8.7c0-1.2,0.2-2.3,0.5-3.3c0.3-1,0.8-1.8,1.5-2.6
		c0.7-0.7,1.5-1.3,2.4-1.6c0.9-0.4,2-0.6,3.3-0.6c2.5,0,4.3,0.8,5.6,2.4s1.9,3.9,1.9,7.1H29.3z M35.9,127.2c0-0.6-0.1-1.1-0.3-1.5
		c-0.2-0.4-0.4-0.8-0.7-1.1s-0.6-0.5-1-0.6c-0.4-0.1-0.8-0.2-1.2-0.2c-0.8,0-1.6,0.3-2.2,0.9c-0.6,0.6-1,1.5-1.1,2.6H35.9z"/>
	<path d="M51.8,136.7V127c0-1.2-0.2-2.1-0.6-2.5c-0.4-0.4-1.1-0.6-2.1-0.6c-2.2,0-3.3,1.2-3.3,3.7v9.1h-4.2v-15.9h4v2.3
		c0.5-0.9,1.2-1.6,2-2.1c0.8-0.5,1.9-0.7,3.2-0.7c0.8,0,1.5,0.1,2.1,0.3c0.6,0.2,1.2,0.6,1.7,1s0.8,1,1.1,1.7
		c0.3,0.7,0.4,1.4,0.4,2.3v11H51.8z"/>
	<path d="M68.7,136.7l0-1.9c-1,1.6-2.4,2.4-4.4,2.4c-1,0-1.9-0.2-2.8-0.6c-0.8-0.4-1.6-0.9-2.2-1.7c-0.6-0.7-1.1-1.6-1.4-2.7
		s-0.5-2.3-0.5-3.6c0-1.2,0.1-2.3,0.4-3.3c0.3-1,0.7-1.9,1.3-2.6c0.6-0.7,1.2-1.3,2.1-1.7c0.8-0.4,1.7-0.6,2.8-0.6
		c2,0,3.5,0.8,4.7,2.5v-7.9h4.1v21.7H68.7z M65.2,133.7c1,0,1.9-0.4,2.5-1.3c0.7-0.8,1-1.9,1-3.3c0-3.5-1.2-5.2-3.5-5.2
		c-2.4,0-3.6,1.6-3.6,4.9c0,1.4,0.3,2.6,1,3.5C63.3,133.2,64.2,133.7,65.2,133.7z"/>
	<path d="M82.3,137.1c-1.3,0-2.4-0.2-3.5-0.6c-1-0.4-1.9-1-2.6-1.7s-1.2-1.6-1.6-2.7c-0.4-1-0.5-2.2-0.5-3.4c0-1.3,0.2-2.4,0.6-3.4
		c0.4-1,0.9-1.9,1.6-2.7s1.6-1.3,2.6-1.7c1-0.4,2.1-0.6,3.4-0.6c1.3,0,2.4,0.2,3.4,0.6c1,0.4,1.8,1,2.5,1.7s1.2,1.6,1.6,2.6
		c0.4,1,0.6,2.2,0.6,3.5c0,1.3-0.2,2.4-0.6,3.4c-0.4,1-0.9,1.9-1.6,2.6s-1.6,1.3-2.6,1.7S83.5,137.1,82.3,137.1z M82.3,133.6
		c2.6,0,3.8-1.6,3.8-4.9c0-3.2-1.3-4.8-3.8-4.8c-2.6,0-3.9,1.6-3.9,4.8C78.4,132,79.7,133.6,82.3,133.6z"/>
	<path d="M99.7,144.2v-23.5h4l0,1.9c1-1.6,2.4-2.4,4.4-2.4c1,0,1.9,0.2,2.8,0.6c0.9,0.4,1.6,0.9,2.2,1.7c0.6,0.7,1.1,1.6,1.4,2.7
		c0.3,1.1,0.5,2.3,0.5,3.6c0,1.2-0.1,2.3-0.4,3.3s-0.7,1.9-1.3,2.6c-0.6,0.7-1.2,1.3-2.1,1.7c-0.8,0.4-1.7,0.6-2.8,0.6
		c-2,0-3.5-0.8-4.7-2.5v9.6H99.7z M107.2,133.5c2.4,0,3.6-1.6,3.6-4.9c0-1.4-0.3-2.6-1-3.5c-0.7-0.9-1.5-1.3-2.6-1.3
		c-1,0-1.9,0.4-2.5,1.3c-0.7,0.8-1,1.9-1,3.3C103.7,131.8,104.9,133.5,107.2,133.5z"/>
	<path d="M124.3,137.1c-1.3,0-2.4-0.2-3.5-0.6c-1-0.4-1.9-1-2.6-1.7s-1.2-1.6-1.6-2.7c-0.4-1-0.5-2.2-0.5-3.4c0-1.3,0.2-2.4,0.6-3.4
		c0.4-1,0.9-1.9,1.6-2.7s1.6-1.3,2.6-1.7c1-0.4,2.1-0.6,3.4-0.6c1.3,0,2.4,0.2,3.4,0.6c1,0.4,1.8,1,2.5,1.7s1.2,1.6,1.6,2.6
		c0.4,1,0.6,2.2,0.6,3.5c0,1.3-0.2,2.4-0.6,3.4c-0.4,1-0.9,1.9-1.6,2.6s-1.6,1.3-2.6,1.7S125.5,137.1,124.3,137.1z M124.3,133.6
		c2.6,0,3.8-1.6,3.8-4.9c0-3.2-1.3-4.8-3.8-4.8c-2.6,0-3.9,1.6-3.9,4.8C120.5,132,121.7,133.6,124.3,133.6z"/>
	<path d="M133.7,136.7v-15.9h3.9v1.9c0.3-0.5,0.7-1,1.1-1.3c0.4-0.3,0.8-0.5,1.2-0.7c0.4-0.2,0.8-0.3,1.2-0.3s0.8-0.1,1.3-0.1h0.6
		v4.3c-0.4-0.1-0.8-0.1-1.2-0.1c-2.6,0-3.9,1.3-3.9,3.9v8.3H133.7z"/>
	<path d="M155.8,129.8c0.1,1.2,0.4,2.2,1.1,2.9c0.6,0.7,1.5,1.1,2.5,1.1c0.7,0,1.3-0.2,1.8-0.5c0.5-0.3,0.9-0.7,1-1.3h4.3
		c-0.5,1.6-1.4,2.9-2.6,3.8s-2.7,1.3-4.4,1.3c-5.3,0-8-2.9-8-8.7c0-1.2,0.2-2.3,0.5-3.3c0.3-1,0.8-1.8,1.5-2.6
		c0.7-0.7,1.5-1.3,2.4-1.6c0.9-0.4,2-0.6,3.3-0.6c2.5,0,4.3,0.8,5.6,2.4s1.9,3.9,1.9,7.1H155.8z M162.4,127.2c0-0.6-0.1-1.1-0.3-1.5
		c-0.2-0.4-0.4-0.8-0.7-1.1s-0.6-0.5-1-0.6c-0.4-0.1-0.8-0.2-1.2-0.2c-0.8,0-1.6,0.3-2.2,0.9c-0.6,0.6-1,1.5-1.1,2.6H162.4z"/>
	<path d="M168,136.7v-21.7h4.2v21.7H168z"/>
	<path d="M198.4,136.7V122l-4,14.7h-4.5l-4-14.7v14.7h-4.2v-21.5h6.6l3.9,15.8l3.9-15.8h6.5v21.5H198.4z"/>
	<path d="M214.6,136.7v-2.2c-1.1,1.8-2.7,2.7-5,2.7c-0.8,0-1.5-0.1-2.2-0.4c-0.7-0.3-1.2-0.7-1.7-1.2c-0.5-0.5-0.8-1.1-1.1-1.8
		c-0.3-0.7-0.4-1.5-0.4-2.4v-10.5h4.2v9.8c0,2,0.9,3,2.7,3c1.1,0,1.9-0.3,2.4-1c0.6-0.7,0.8-1.5,0.8-2.6v-9.2h4.2v15.9H214.6z"/>
	<path d="M230.4,136.7V127c0-1.2-0.2-2.1-0.6-2.5c-0.4-0.4-1.1-0.6-2.1-0.6c-2.2,0-3.3,1.2-3.3,3.7v9.1h-4.2v-15.9h4v2.3
		c0.5-0.9,1.2-1.6,2-2.1c0.8-0.5,1.9-0.7,3.2-0.7c0.8,0,1.5,0.1,2.1,0.3c0.6,0.2,1.2,0.6,1.7,1s0.8,1,1.1,1.7
		c0.3,0.7,0.4,1.4,0.4,2.3v11H230.4z"/>
	<path d="M247.4,136.7l0-1.9c-1,1.6-2.4,2.4-4.4,2.4c-1,0-1.9-0.2-2.8-0.6c-0.8-0.4-1.6-0.9-2.2-1.7c-0.6-0.7-1.1-1.6-1.4-2.7
		s-0.5-2.3-0.5-3.6c0-1.2,0.1-2.3,0.4-3.3c0.3-1,0.7-1.9,1.3-2.6c0.6-0.7,1.2-1.3,2.1-1.7c0.8-0.4,1.7-0.6,2.8-0.6
		c2,0,3.5,0.8,4.7,2.5v-7.9h4.1v21.7H247.4z M243.9,133.7c1,0,1.9-0.4,2.5-1.3c0.7-0.8,1-1.9,1-3.3c0-3.5-1.2-5.2-3.5-5.2
		c-2.4,0-3.6,1.6-3.6,4.9c0,1.4,0.3,2.6,1,3.5C242,133.2,242.8,133.7,243.9,133.7z"/>
	<path d="M260.9,137.1c-1.3,0-2.4-0.2-3.5-0.6c-1-0.4-1.9-1-2.6-1.7s-1.2-1.6-1.6-2.7c-0.4-1-0.5-2.2-0.5-3.4c0-1.3,0.2-2.4,0.6-3.4
		c0.4-1,0.9-1.9,1.6-2.7s1.6-1.3,2.6-1.7c1-0.4,2.1-0.6,3.4-0.6c1.3,0,2.4,0.2,3.4,0.6c1,0.4,1.8,1,2.5,1.7s1.2,1.6,1.6,2.6
		c0.4,1,0.6,2.2,0.6,3.5c0,1.3-0.2,2.4-0.6,3.4c-0.4,1-0.9,1.9-1.6,2.6s-1.6,1.3-2.6,1.7S262.2,137.1,260.9,137.1z M260.9,133.6
		c2.6,0,3.8-1.6,3.8-4.9c0-3.2-1.3-4.8-3.8-4.8c-2.6,0-3.9,1.6-3.9,4.8C257.1,132,258.4,133.6,260.9,133.6z"/>
</g>
</svg>
