<?xml version="1.0" standalone="no"?>
<!DOCTYPE svg PUBLIC "-//W3C//DTD SVG 1.1//EN" "http://www.w3.org/Graphics/SVG/1.1/DTD/svg11.dtd" >
<svg xmlns="http://www.w3.org/2000/svg">
<metadata>Generated by IcoMoon</metadata>
<defs>
<font id="icomoon" horiz-adv-x="1024">
<font-face units-per-em="1024" ascent="960" descent="-64" />
<missing-glyph horiz-adv-x="1024" />
<glyph unicode="&#x20;" horiz-adv-x="512" d="" />
<glyph unicode="&#xe000;" glyph-name="eye3" d="M512 810.667q69.667 0 135.5-21.167t115.5-55 93.5-74.833 73.667-82 51.667-74.833 32.167-54.833l10-21.333q-2.333-5-6.333-13.5t-18.833-34.667-31.667-51.667-44.333-60-56.833-64.333-69.5-60.167-82.333-51.5-94.833-34.667-107.333-13.5q-69.667 0-135.5 21.167t-115.5 54.833-93.5 74.333-73.667 81.5-51.667 74.5-32.167 55l-10 21q2.333 5 6.333 13.5t18.833 34.833 31.667 51.833 44.333 60.333 56.833 64.667 69.5 60.333 82.333 51.833 94.833 34.833 107.333 13.5zM512 725.334q-46.667 0-91.667-12.333t-81.167-31.833-70.667-47.167-59.667-54.5-48.833-57.667-37.667-52.833-26.333-44q12.333-21.667 26.333-43.5t37.667-52.333 48.833-57 59.667-53.833 70.667-46.667 81.167-31.5 91.667-12.167 91.667 12.333 81.167 31.667 70.667 46.833 59.667 54.167 48.833 57.333 37.667 52.667 26.333 43.667q-12.333 21.667-26.333 43.667t-37.667 52.667-48.833 57.333-59.667 54.167-70.667 46.833-81.167 31.667-91.667 12.333zM512 597.334q70.667 0 120.667-50t50-120.667-50-120.667-120.667-50-120.667 50-50 120.667 50 120.667 120.667 50zM512 512q-35.333 0-60.333-25t-25-60.333 25-60.333 60.333-25 60.333 25 25 60.333-25 60.333-60.333 25z" />
<glyph unicode="&#xe001;" glyph-name="paper-clip" d="M674 938.667q41.667 0 80-15.667 40-16 70.667-46.667 31-31.333 46.667-70.333 15.333-37.667 15.333-80t-15.333-80q-15.667-39-46.667-70.333l-392.667-392.667q-18-18-42.667-28.333-24-9.333-48-9.333t-48 9.333q-24.667 10.333-42.667 28.333-18.667 18.667-28 42.333-9.333 22.667-9.333 48 0 25.667 9.333 48.333 9.333 23.333 28 42.333l362.333 362q12.667 12.667 30.333 12.667 17.333 0 30-12.667t12.667-30q0-17.667-12.667-30.333l-362.333-362q-12.333-12.333-12.333-30.333 0-17.667 12.333-30 13.333-12.667 30.333-12.667t30.333 12.667l392.667 392.667q37 37 37 90t-37 90q-38 37.333-90.333 37.333-52.667 0-90-37.333l-393.667-391.667q-30.667-30.667-46.667-70.667-15.667-38.333-15.667-80.333 0-41.333 15.667-80.333 16-39.667 46.667-70.333 31.667-31.333 70.667-47t80.333-15.667 80.333 15.667 70.667 47l392 392q12.667 12.667 30.333 12.667 17.333 0 30-12.667t12.667-30q0-17.667-12.667-30.333l-392-392q-43-43-99-65.667-53.333-22-112.333-22-58.667 0-112.333 22-56 22.667-99 65.667-42.667 42.667-65.333 98.667-22 54-22 112.333 0 58.667 22 112.333 22.333 55.333 65.333 99h0.333l393.333 391.667q30.667 30.667 70.333 46.667 39 15.667 80 15.667z" />
<glyph unicode="&#xe002;" glyph-name="mail" d="M170.667 810.667h682.667q53 0 90.5-37.5t37.5-90.5v-512q0-53-37.5-90.5t-90.5-37.5h-682.667q-53 0-90.5 37.5t-37.5 90.5v512q0 53 37.5 90.5t90.5 37.5zM896 170.667v466l-357.333-286q-11.333-9.333-26.667-9.333t-26.667 9.333l-357.333 286v-466q0-17.667 12.5-30.167t30.167-12.5h682.667q17.667 0 30.167 12.5t12.5 30.167zM853.333 725.334h-682.667q-6.333 0-14-2.333l355.333-284.333 355.333 284.333q-7.667 2.333-14 2.333z" />
<glyph unicode="&#xe024;" glyph-name="heart2" d="M753.333 853.334q69.667 0 128.5-34.333t93.167-93.167 34.333-128.5q0-50-19.167-97.167t-55.833-83.833l-422.333-422.333-422.333 422.333q-36.667 36.667-55.833 83.833t-19.167 97.167q0 69.667 34.333 128.5t93.167 93.167 128.5 34.333q50.333 0 97.167-19t83.833-56l60.333-60.333 60.333 60.333q36.667 36.667 83.833 55.833t97.167 19.167zM753.333 768q-33.333 0-64.667-12.667t-56-37.333l-120.667-120.667-120.667 120.667q-24.667 24.667-56 37.333t-64.667 12.667q-46.667 0-85.833-22.833t-62-62-22.833-85.833q0-33.333 12.667-64.667t37.333-56l362-362 362 362q24.667 24.667 37.333 56t12.667 64.667q0 46.667-22.833 85.833t-62 62-85.833 22.833z" />
<glyph unicode="&#xe036;" glyph-name="search" d="M426.667 896q78 0 149.167-30.5t122.5-81.833 81.833-122.5 30.5-149.167q0-67-21.833-128.333t-62.167-111.333l242.333-242q12.333-12.333 12.333-30.333 0-18.333-12.167-30.5t-30.5-12.167q-18 0-30.333 12.333l-242 242.333q-50-40.333-111.333-62.167t-128.333-21.833q-78 0-149.167 30.5t-122.5 81.833-81.833 122.5-30.5 149.167 30.5 149.167 81.833 122.5 122.5 81.833 149.167 30.5zM426.667 810.667q-60.667 0-116-23.667t-95.333-63.667-63.667-95.333-23.667-116 23.667-116 63.667-95.333 95.333-63.667 116-23.667 116 23.667 95.333 63.667 63.667 95.333 23.667 116-23.667 116-63.667 95.333-95.333 63.667-116 23.667z" />
<glyph unicode="&#xe039;" glyph-name="reply" d="M356.667 783.667q17.333 0 30-12.5t12.667-30.167-12.667-30.333l-198.667-198.667h409.333q78 0 149.167-30.333t122.5-81.833 81.833-122.5 30.5-149.333v-42.667q0-17.667-12.5-30.167t-30.167-12.5q-17.333 0-30 12.667t-12.667 30v42.667q0 60.667-23.667 116t-63.667 95.333-95.333 63.667-116 23.667h-409.333l198.667-199q12.667-12.667 12.667-30 0-17.667-12.5-30.333t-30.167-12.667-30.333 12.667l-271.333 271.667q-12.333 12.333-12.333 30.333 0 17.667 12.333 30l271.333 271.667q12.667 12.667 30.333 12.667z" />
<glyph unicode="&#xe044;" glyph-name="square-plus" d="M170.667 896h682.667q53 0 90.5-37.5t37.5-90.5v-682.667q0-53-37.5-90.5t-90.5-37.5h-682.667q-53 0-90.5 37.5t-37.5 90.5v682.667q0 53 37.5 90.5t90.5 37.5zM853.333 810.667h-682.667q-17.667 0-30.167-12.5t-12.5-30.167v-682.667q0-17.667 12.5-30.167t30.167-12.5h682.667q17.667 0 30.167 12.5t12.5 30.167v682.667q0 17.667-12.5 30.167t-30.167 12.5zM512 640q17.667 0 30.167-12.5t12.5-30.167v-128h128q17.667 0 30.167-12.5t12.5-30.167-12.5-30.167-30.167-12.5h-128v-128q0-17.667-12.5-30.167t-30.167-12.5-30.167 12.5-12.5 30.167v128h-128q-17.667 0-30.167 12.5t-12.5 30.167 12.5 30.167 30.167 12.5h128v128q0 17.667 12.5 30.167t30.167 12.5z" />
<glyph unicode="&#xe047;" glyph-name="square-cross" d="M170.667 896h682.667q53 0 90.5-37.5t37.5-90.5v-682.667q0-53-37.5-90.5t-90.5-37.5h-682.667q-53 0-90.5 37.5t-37.5 90.5v682.667q0 53 37.5 90.5t90.5 37.5zM853.333 810.667h-682.667q-17.667 0-30.167-12.5t-12.5-30.167v-682.667q0-17.667 12.5-30.167t30.167-12.5h682.667q17.667 0 30.167 12.5t12.5 30.167v682.667q0 17.667-12.5 30.167t-30.167 12.5zM632.667 590.334q17.667 0 30.333-12.667t12.667-30.333-12.667-30.333l-90.667-90.333 90.667-90.333q12.667-12.667 12.667-30.333t-12.667-30.167-30.333-12.5-30 12.333l-90.667 90.667-90.667-90.667q-12-12.333-30-12.333-18.333 0-30.5 12.167t-12.167 30.5q0 18 12.333 30.333l90.667 90.333-90.667 90.333q-12.333 12.333-12.333 30.333 0 17.667 12.5 30.333t30.167 12.667q18 0 30-12.667l90.667-90.667 90.667 90.667q12.667 12.667 30 12.667z" />
<glyph unicode="&#xe070;" glyph-name="location" d="M0 469.334l1024 469.333-469.333-1024-128 426.667zM571.333 156l279.333 609.333-609.333-279.333 254-76z" />
<glyph unicode="&#xe072;" glyph-name="map" d="M682.667 725.334l341.333 213.333v-810.667l-341.333-213.333-341.333 213.333-341.333-213.333v810.667l341.333 213.333zM298.667 202v609l-213.333-133.333v-609zM640 651.334l-256 160.333v-609.667l256-160v609.333zM938.667 175.334v609.333l-213.333-133.333v-609.333z" />
<glyph unicode="&#xe074;" glyph-name="head" d="M512 938.667q69.667 0 128.5-34.333t93.167-93.167 34.333-128.5v-128q0-53.333-20.667-101t-57.667-83q97.333-15.333 173-45.167t118.5-70.5 42.833-85.667v-84q0-53-37.5-90.5t-90.5-37.5h-768q-53 0-90.5 37.5t-37.5 90.5v84.333q0 45 42.833 85.667t118.333 70.5 172.833 44.833q-36.667 35.667-57.333 83.167t-20.667 100.833v128q0 69.667 34.333 128.5t93.167 93.167 128.5 34.333zM512 298.667q-92.667 0-178.833-14.833t-150.167-41.5q-25.667-10.667-45.833-22.667t-30.667-21.667-15.833-16.833-5.333-11.5v-84.333q0-17.667 12.5-30.167t30.167-12.5h768q17.667 0 30.167 12.5t12.5 30.167v84q0 4.333-5.333 11.5t-15.833 16.833-30.667 21.667-45.833 23q-64 26.667-150.167 41.5t-178.833 14.833zM512 853.334q-70.667 0-120.667-50t-50-120.667v-128q0-70.667 50-120.667t120.667-50 120.667 50 50 120.667v128q0 70.667-50 120.667t-120.667 50z" />
<glyph unicode="&#xe081;" glyph-name="share" d="M768 853.334q70.667 0 120.667-50t50-120.667-50-120.667-120.667-50q-37.667 0-71.167 15.5t-57.5 43.167l-216.333-108.333q3.667-17.667 3.667-35.667t-3.667-35.667l216.333-108.333q24 27.667 57.5 43.167t71.167 15.5q70.667 0 120.667-50t50-120.667-50-120.667-120.667-50-120.667 50-50 120.667q0 18 3.667 35.667l-216.333 108.333q-24-27.667-57.5-43.167t-71.167-15.5q-70.667 0-120.667 50t-50 120.667 50 120.667 120.667 50q37.667 0 71.167-15.5t57.5-43.167l216.333 108.333q-3.667 17.667-3.667 35.667 0 70.667 50 120.667t120.667 50zM256 512q-35.333 0-60.333-25t-25-60.333 25-60.333 60.333-25 60.333 25 25 60.333-25 60.333-60.333 25zM768 256q-35.333 0-60.333-25t-25-60.333 25-60.333 60.333-25 60.333 25 25 60.333-25 60.333-60.333 25zM768 768q-35.333 0-60.333-25t-25-60.333 25-60.333 60.333-25 60.333 25 25 60.333-25 60.333-60.333 25z" />
<glyph unicode="&#xe112;" glyph-name="maximize" d="M597.333 384.334q17.667 0 30.333-12.667l268.333-268.333v195.667q0 17.667 12.5 30.167t30.167 12.5 30.167-12.5 12.5-30.167v-298.667q0-17.667-12.667-30.333t-30.333-12.667h-298.667q-17.667 0-30.167 12.5t-12.5 30.167 12.5 30.167 30.167 12.5h195.667l-268.333 268.333q-12.333 13-12.333 30.333 0 17.667 12.5 30.333t30.167 12.667zM85.333 896h298.667q17.667 0 30.167-12.5t12.5-30.167-12.5-30.167-30.167-12.5h-195.667l268.333-268q12.667-12.667 12.667-30.333t-12.667-30.167-30.333-12.5q-17 0-30.333 12.333l-268 268.333v-195.667q0-17.667-12.5-30.167t-30.167-12.5-30.167 12.5-12.5 30.167v298.667q0 17.667 12.5 30.167t30.167 12.5z" />
<glyph unicode="&#xe113;" glyph-name="minimize" d="M85.333 896q18 0 30.333-12.333l268.333-268.333v195.667q0 17.667 12.5 30.167t30.167 12.5 30.167-12.5 12.5-30.167v-298.667q0-17.667-12.667-30.333t-30.333-12.667h-298.667q-17.667 0-30.167 12.5t-12.5 30.167 12.5 30.167 30.167 12.5h195.667l-268.333 268.333q-12.333 12.333-12.333 30.333 0 18.333 12.167 30.5t30.5 12.167zM597.667 384h298.667q17.667 0 30.167-12.5t12.5-30.167-12.5-30.167-30.167-12.5h-195.667l268-268.333q12.667-12.667 12.667-30.333t-12.5-30.167-30.167-12.5q-18 0-30.333 12.333l-268.333 268.333v-195.667q0-17.667-12.5-30.167t-30.167-12.5-30.167 12.5-12.5 30.167v298.667q0 17.667 12.667 30.333t30.333 12.667z" />
<glyph unicode="&#xe117;" glyph-name="cross2" d="M810.667 768q18.333 0 30.5-12.167t12.167-30.5q0-18-12.333-30.333l-268.667-268.333 268.667-268.333q12.333-12.333 12.333-30.333 0-18.333-12.167-30.5t-30.5-12.167q-18 0-30.333 12.333l-268.333 268.667-268.333-268.667q-12.333-12.333-30.333-12.333-18.333 0-30.5 12.167t-12.167 30.5q0 18 12.333 30.333l268.667 268.333-268.667 268.333q-12.333 12.333-12.333 30.333 0 18.333 12.167 30.5t30.5 12.167q18 0 30.333-12.333l268.333-268.667 268.333 268.667q12.333 12.333 30.333 12.333z" />
<glyph unicode="&#xe120;" glyph-name="menu" d="M128 725.334h768q17.667 0 30.167-12.5t12.5-30.167-12.5-30.167-30.167-12.5h-768q-17.667 0-30.167 12.5t-12.5 30.167 12.5 30.167 30.167 12.5zM128 213.334h768q17.667 0 30.167-12.5t12.5-30.167-12.5-30.167-30.167-12.5h-768q-17.667 0-30.167 12.5t-12.5 30.167 12.5 30.167 30.167 12.5zM128 469.334h768q17.667 0 30.167-12.5t12.5-30.167-12.5-30.167-30.167-12.5h-768q-17.667 0-30.167 12.5t-12.5 30.167 12.5 30.167 30.167 12.5z" />
<glyph unicode="&#xe900;" glyph-name="recamaras" d="M929.959 492.147v119.118c0 83.592-66.873 150.465-150.465 150.465h-534.988c-83.592 0-150.465-66.873-150.465-150.465v-119.118c-37.616-8.359-66.873-41.796-66.873-81.502v-100.31c0-8.359 8.359-16.718 16.718-16.718h16.718v-133.747h33.437v83.592h835.918v-83.592h33.437v133.747h16.718c8.359 0 16.718 8.359 16.718 16.718v100.31c0 39.706-29.257 73.143-66.873 81.502v0zM127.478 611.265c0 64.784 52.245 117.029 117.029 117.029h534.988c64.784 0 117.029-52.245 117.029-117.029v-117.029h-83.592v100.31c0 6.269-4.18 12.539-10.449 14.629-4.18 2.090-87.771 35.527-131.657 35.527s-127.478-33.437-131.657-35.527c-6.269-2.090-10.449-8.359-10.449-14.629v-100.31h-33.437v100.31c0 6.269-4.18 12.539-10.449 14.629-4.18 2.090-87.771 35.527-131.657 35.527s-127.478-33.437-131.657-35.527c-6.269-2.090-10.449-8.359-10.449-14.629v-100.31h-83.592v117.029zM779.494 494.237h-217.339v89.861c27.167 10.449 81.502 27.167 108.669 27.167s81.502-16.718 108.669-29.257v-87.771zM461.845 494.237h-217.339v89.861c27.167 10.449 81.502 27.167 108.669 27.167s81.502-16.718 108.669-29.257v-87.771zM929.959 276.898h-835.918v16.718h835.918v-16.718zM963.396 327.053h-902.792v83.592c0 27.167 22.988 50.155 50.155 50.155h802.482c27.167 0 50.155-22.988 50.155-50.155v-83.592z" />
<glyph unicode="&#xe901;" glyph-name="bullet2" d="M512.214 315.095v0c-80.448 0-145.919 65.471-145.919 145.919v0c0 80.448 65.471 145.919 145.919 145.919v0c80.448 0 145.919-65.471 145.919-145.919v0c-0.428-80.876-65.471-145.919-145.919-145.919z" />
<glyph unicode="&#xe903;" glyph-name="baja-california-norte" horiz-adv-x="714" d="M9.54 972.8h426.137v-19.717c0-3.816 3.816-11.448 0-11.448h-3.18c-5.088 0-5.088-1.272-5.724-5.724 0-3.816 0-7.632 0-10.812-3.816-0.636-8.268 0-13.993 0-1.272 0-27.985-20.353-33.073-23.533-3.816-2.544-5.088-5.724-7.632-10.812-2.544-4.452-3.816-8.904-6.36-12.72-8.268-13.357 15.265-15.265 13.993-26.713-1.272-8.268-6.36-7.632-3.18-18.445 1.908-5.724 0.636-24.169 1.908-36.889-4.452 3.816-8.904 7.632-15.265 11.448-6.36 4.452 0 4.452 0-8.904 0-6.36 7.632-8.904 10.176-12.084 3.18-3.816-2.544-18.445 3.18-22.897 7.632-5.088 22.897 7.632 22.897-6.996 0-5.724-3.18-29.257-3.18-13.993 0 8.268 14.629-1.908 19.081-3.18l-0.636 1.272c-5.724-2.544-9.54-1.908-4.452 5.724 1.272 1.908 1.908 3.816 1.908 5.724-0.636 2.544-1.908 4.452-3.18 6.996-6.996 6.36-20.989 5.724-10.812-12.72 2.544-5.088 10.176-6.996 17.809-7.632v0c-8.268-24.805-33.073-26.077-33.073-71.235 0-19.717-8.268-62.966 6.996-78.231 4.452-4.452 13.993 20.353 13.993 3.18 0-76.323 3.18-92.86 3.18-162.186 0-11.448 20.353-9.54 15.901-12.084-33.709-20.989 3.18-23.533 3.18-40.070 0-27.985 16.537 11.448 17.173 3.18 1.272-13.993-5.088-19.081-3.18-33.073 1.272-13.357 22.261-1.272 31.165-10.176s18.445-17.173 29.893-24.169c15.901-10.176 52.79-70.599 73.143-89.043 0-45.158 24.169-26.713 24.169-36.889 0-18.445-27.985-17.173-12.084-33.073 24.805-24.805-7.632 14.629 19.081 0 13.993-7.632 19.081-47.066 19.081-34.981 0 15.265 20.989 1.272 20.989-33.073 0-43.886 47.066-44.522 47.066-61.058 0-17.809 3.18-41.978 12.084-55.97 3.816-6.36 6.36-13.357 8.268-21.625l-267.766 20.353c3.816 0.636 6.996 0.636 10.812 0.636v17.173l1.272 1.272h1.908c0.636 2.544 3.816 3.18 6.36 3.18 1.908 6.996 3.18 10.812 3.18 19.081-5.724 0-7.632-1.272-10.812-1.908 0-1.908 0-1.272-1.272-3.18-2.544 1.908-3.18 5.724-5.088 6.36v9.54h1.908c0.636 2.544 4.452 3.816 5.088 6.36 3.816 0 4.452 3.18 7.632 4.452 0 4.452-1.272 12.72 5.088 12.72 1.908 5.088 5.088-0.636 7.632 10.812 0 12.72-12.084 20.353-12.084 31.801 0 21.625-11.448 12.72-21.625 19.081-8.268 5.088-1.908 13.993-7.632 19.081-7.632 7.632-20.353 0-20.353 23.533 0 18.445-31.165 7.632-31.165 28.621 0 31.165-43.886 41.978-43.886 75.051-6.36 0-7.632 10.812-15.901 10.812s-13.357 1.908-21.625 3.18c-11.448 0-12.084 8.904-17.173 10.812 0 1.908 0.636 3.816-1.272 4.452 0 5.088-15.901 13.357-19.081 13.993-0.636 1.908-13.993 10.812-17.173 12.084 0 4.452 0.636 1.908-1.908 3.18v4.452c-1.272 0.636-1.908 0.636-1.908 1.908-12.084 0-6.996 20.353-17.173 20.353-2.544 8.268-12.084 8.268-17.173 1.908-22.261 4.452-1.908 26.713-1.908 33.073-11.448 2.544 0 17.809-7.632 21.625-6.996 3.18-14.629 1.908-22.261 1.908-0.636 1.908-0.636 2.544-1.908 3.18v12.72h4.452c2.544 8.268 9.54 20.353 10.812 31.801 1.908 14.629-8.904 14.629-7.632 27.985s1.908 10.176-7.632 18.445c-6.36 0-3.18 0.636-3.18 6.36 0 6.996-3.816 3.816-5.088 10.812 0-5.088 3.816-15.901-4.452-15.901-6.36 0 1.272 12.084-6.36 17.173-5.088 3.18-6.36 6.36-6.36 12.084 0 8.904 1.908 6.996 8.268 12.084 15.265 10.812-4.452 8.268-5.088 15.265-0.636 8.268-0.636 8.904 5.088 12.72 6.996 4.452 1.908 17.173-1.908 21.625-5.724 5.724-12.72 6.996-18.445 15.265-3.18 5.088-1.908 12.084-7.632 17.173-4.452 3.816-20.353 0.636-20.353 6.36 0 3.816 1.908 0.636 3.18 1.908s1.908 13.993 1.908 18.445c0 0.636 1.272 1.908 1.272 3.18 0 2.544 0 5.724 0 8.268-0.636 5.088-3.18 8.268-3.18 15.265 0 13.357-15.901 15.265-15.901 26.713 0 6.996-0.636 14.629-7.632 18.445 0 6.996-16.537 13.357-18.445 18.445-5.724 0-9.54 6.996-13.993 8.268 0 17.173 12.72 16.537 12.72 21.625-3.816 0.636-5.088 1.908-9.54 1.908 0 3.816 3.18 10.176 0 13.993-5.088 5.724-13.357 5.724-15.265 15.265-5.088 1.272-9.54 6.996-12.084 7.632v6.36c5.724 0.636 13.357-3.18 16.537-5.724v-1.908c1.908-0.636 0-0.636 1.908-1.272v-1.908h9.54l1.272-1.272c0.636-1.908 0-1.908 1.908-1.908 0.636-1.272 0.636-1.908 1.272-3.18h6.36c1.272 3.816 4.452 4.452 4.452 10.812 0 3.18 0.636 6.996-1.272 9.54-7.632 0-13.993 5.088-20.353 7.632v20.353h-2.544c-1.272-1.908-1.272-1.272-1.272-3.18l-1.272-1.272h-10.176c0 7.632 1.272 13.993 1.272 21.625-2.544 1.272-4.452 4.452-4.452 7.632-11.448 2.544-10.812 13.357-10.812 22.261 0 6.996-1.908 14.629-1.908 20.353l-1.908 1.272c-3.18 0-5.088 0-8.268 1.272-1.908-1.272-1.272-1.272-3.18-1.272-2.544-2.544-3.816-3.18-6.36-3.816-2.544 3.816-1.272 8.268 1.272 11.448 2.544 3.816 3.18 8.268 3.18 12.72l1.908 1.272v3.18c-2.544 1.908-6.996 3.816-8.268 6.36l-1.272 1.272c-1.908 0-1.272 0-3.18 1.272v23.533l1.908 1.908h3.18l1.272 2.544c1.908 0.636 0 0.636 1.908 1.272 0.636 0.636 0.636 1.908 1.272 3.18z" />
<glyph unicode="&#xe904;" glyph-name="banos" horiz-adv-x="599" d="M598.943 412.498c0 0 0 0 0 0 0 2.415 0 4.83-2.415 7.245l-21.736 50.717c-7.245 14.491-19.321 28.981-33.811 41.057l38.642 251.17c4.83 41.057-4.83 77.283-28.981 106.264s-60.377 45.887-101.434 45.887h-297.057c-41.057 0-77.283-16.906-101.434-45.887-26.566-26.566-36.226-65.208-31.396-106.264l36.226-251.17c-14.491-9.66-26.566-24.151-33.811-41.057l-21.736-50.717c0-2.415 0-4.83 0-7.245 0 0 0 0 0 0 0-147.321 99.019-270.491 234.264-301.887l-77.283-132.83c-2.415-4.83-2.415-14.491 0-19.321s9.66-9.66 16.906-9.66h270.491c7.245 0 14.491 4.83 16.906 9.66 2.415 7.245 2.415 14.491 0 19.321l-79.698 137.66c128 36.226 217.358 156.981 217.358 297.057v0zM91.774 528.423l-33.811 239.094c-2.415 28.981 4.83 57.962 21.736 77.283s43.472 31.396 72.453 31.396h294.642c28.981 0 55.547-12.075 72.453-31.396s24.151-48.302 21.736-77.283l-33.811-239.094h-415.396zM57.962 455.97c7.245 16.906 28.981 33.811 48.302 33.811h386.415c19.321 0 41.057-14.491 48.302-33.811l9.66-24.151h-502.34l9.66 24.151zM347.774 146.838c-7.245 0-12.075-4.83-14.491-12.075-2.415-4.83-2.415-12.075 0-16.906l77.283-130.415h-202.868l74.868 128c2.415 4.83 2.415 12.075 0 19.321-2.415 4.83-9.66 9.66-14.491 9.66-125.585 14.491-219.774 120.755-229.434 248.755h519.245c-7.245-120.755-94.189-224.604-210.113-246.34v0zM475.774 298.989c-9.66 7.245-21.736 4.83-26.566-4.83-33.811-48.302-89.358-74.868-149.736-74.868-9.66 0-19.321-9.66-19.321-19.321s9.66-19.321 19.321-19.321c70.038 0 137.66 33.811 181.132 91.774 4.83 9.66 2.415 21.736-4.83 26.566v0zM231.849 972.8h154.566v-38.642h-154.566v38.642z" />
<glyph unicode="&#xe905;" glyph-name="blog-quote" horiz-adv-x="1100" d="M475.002 927.448v-183.795c0-23.869-19.096-45.352-45.352-45.352-88.317 0-138.443-90.704-143.217-272.112h143.217c23.869 0 45.352-19.096 45.352-45.352v-386.685c0-23.869-19.096-45.352-45.352-45.352h-384.298c-26.256 0-45.352 21.483-45.352 45.352v389.072c0 85.93 9.548 164.699 26.256 236.308s45.352 133.669 81.156 186.182c35.804 52.513 83.543 95.478 136.056 124.121s114.573 42.965 186.182 42.965c23.869 0 45.352-19.096 45.352-45.352v0zM1057.417 698.301c23.869 0 45.352 19.096 45.352 45.352v183.795c0 23.869-19.096 45.352-45.352 45.352-69.221 0-133.669-14.322-186.182-45.352-54.9-28.643-100.252-71.608-136.056-124.121s-62.061-114.573-81.156-186.182c-16.709-69.221-26.256-147.991-26.256-236.308v-386.685c0-23.869 19.096-45.352 45.352-45.352h384.298c23.869 0 45.352 19.096 45.352 45.352v389.072c0 23.869-19.096 45.352-45.352 45.352h-140.83c4.774 179.021 52.513 269.725 140.83 269.725v0z" />
<glyph unicode="&#xe906;" glyph-name="chihuahua" horiz-adv-x="827" d="M55.801 898.888l3.426-110.623c9.3 0 19.090 3.426 22.027-4.895 1.468-3.916-0.489-11.258 0-15.174 0.489-2.937 3.916-1.958 3.916-6.363 0-12.727 2.447-26.432 2.447-39.648 0-4.895-12.727-71.954-2.447-71.954 1.468-4.895-4.405-41.117-8.811-43.564-3.916-2.447-1.958-9.3-3.916-12.727-1.468-2.937-8.811-4.895-8.811-8.811-0.489-6.363 7.342-16.642-3.916-16.642-8.811 0 0-44.054 0-48.948 0-28.88 18.111-6.853 18.111-33.285 11.748-15.663 12.727-19.090 12.727-37.201 0-9.79 1.468-15.663 1.468-25.453 0-10.279-2.937-11.258-12.727-10.279-7.342 0.979-21.537 3.426-24.474-4.895-4.895-14.685-41.117 12.237-51.396-4.895 9.79-17.132 10.769-49.927 26.922-59.228 6.853-3.916 0.979-14.195 4.895-16.642 13.706-7.832 18.111-1.468 18.111-23.006 0-10.279 18.111-37.69 8.811-48.948-1.958-2.447-7.832-25.453-3.916-29.369 10.279-10.279 1.958 0.979 7.832-16.642l10.279-6.853 5.384 1.958h40.138c-0.489-4.895-0.979-10.279-2.447-13.706-2.447-5.874 11.258-10.769 15.174-11.748 1.958-0.489 4.405-1.468 5.874-2.447 6.853-4.405-2.937-1.958 4.895-4.405 3.916-0.979 3.426-5.384 3.426-10.279 0-2.937-1.468-7.832-0.979-8.321 2.447-2.447-1.958-2.447-3.426-3.426-0.979-0.489-0.489-5.384-1.468-5.874-1.958-1.468-5.384 0.489-4.405-4.405 0.979-3.426 9.3-0.489 11.748-2.447l2.447-46.501 23.495-33.774h31.327c2.937-7.832 17.621 2.937 19.579-4.895 2.447-10.769 6.853-5.384 15.174-6.853 1.958-0.489 0.489-11.258 0.979-13.706 0-1.468 4.895-11.748 5.874-13.706 5.874-10.279 3.916-9.3 12.727-8.321s4.895-14.195 15.174-14.195l4.405-4.895v-2.447c0-1.468 3.916-0.489 4.405-2.447 0-1.468 0-12.727 0-12.727 0.979-0.489 3.426 0.979 3.426 0v-0.979c0-2.447 1.468 0.489 1.468-3.426 6.853-2.447 8.811-4.405 15.174-4.895 5.384-0.489 7.342-7.832 10.769-7.832 16.642 0-0.489-10.279 13.706-1.468 42.096 27.901 20.558 18.111 29.369 59.717 2.937 12.727 11.748 5.874 11.748 23.495 0 22.516 12.727 38.18 25.943 51.396 8.811 8.811-3.916 34.753 10.279 40.627 8.811 3.426 9.3 2.937 12.727 10.279 2.937 5.874 11.748 9.3 11.748 15.174 23.985 7.342 7.342-6.853 21.048-7.832 19.579-0.979 25.453-21.537 37.201-25.943 6.853-2.937 3.916 0.979 7.832 3.426 7.342 5.384 7.342-9.79 9.3-11.748 0.979-0.979 11.748-5.874 14.195-5.874 12.727-0.489 42.096-34.753 42.096-21.048 0 7.342-3.426 12.237 2.447 16.642 1.958 1.468 6.363-1.958 6.853-3.426 3.426-9.79 6.853-7.832 16.153-2.447 7.342 4.405 10.769 3.916 19.579 6.853 11.258-4.895 14.195-4.405 18.6-13.706 2.937-6.853 13.216-14.685 21.048-14.195 12.237 0.489 5.384 21.537 10.279 29.369 0.489 0.979 6.363 4.895 7.832 5.874 0.979 0.979 6.363 5.384 6.853 6.853l31.327 23.985 67.549-6.363-28.88 200.199 81.744 163.488c-7.342 4.895-12.727 15.174-19.579 18.6-5.874 2.937-7.342 3.426-14.195 3.916-19.090 1.958-22.516 15.174-36.222 27.901-37.69 0-34.264 21.048-66.080 31.816-12.237 4.405-39.159 44.543-42.096 60.696-3.916 21.048 2.447 39.648-10.279 57.759-1.958 4.405-2.447 9.3-7.342 9.3h-0.979c-5.874 0-6.363 8.811-8.321 11.258-1.468 1.468-1.468 1.468-1.958 2.937-4.895 11.258 0 21.537-9.3 27.901-4.895 3.426 0.489 5.874-10.279 9.3-7.342 21.537-19.090 37.69-44.054 45.522-35.732 10.769-34.753 38.18-65.101 50.417-11.258 4.405-31.327 40.138-41.117 48.459-12.237 10.279-20.069 23.006-29.859 32.795-12.237 12.237-19.090 11.748-33.285 23.985l-234.952 8.321-8.811-76.359-85.66 4.895z" />
<glyph unicode="&#xe907;" glyph-name="construccion" horiz-adv-x="1058" d="M895.576-50.069h-732.075c-10.183 0-18.104 7.92-18.104 18.104v457.123h-127.293c-7.355 0-14.144 4.526-16.972 11.315s-1.131 14.709 3.96 19.801l510.869 511.434c3.394 3.394 7.92 5.092 12.446 5.092s9.618-1.697 13.012-5.092l509.737-510.303c3.96-3.394 6.223-8.486 6.223-13.578 0-10.183-7.92-18.104-18.104-18.104 0 0 0 0 0 0h-125.596v-457.123c0-10.183-8.486-18.67-18.104-18.67v0zM500.685-13.861h376.787v457.123c0 10.183 7.92 18.104 18.104 18.104h100.137l-467.306 467.872-466.74-467.872h101.269c10.183 0 18.104-7.92 18.104-18.104v-457.123h78.639v390.365c0 10.183 7.92 18.104 18.104 18.104h204.234c10.183 0 18.104-7.92 18.104-18.104v-390.365zM295.885-13.861h168.027v372.261h-168.027v-372.261zM779.598 184.716h-174.25c-10.183 0-18.104 7.92-18.104 18.104v174.25c0 10.183 7.92 18.104 18.104 18.104h174.25c10.183 0 18.104-7.92 18.104-18.104v-174.25c0-10.183-8.486-18.104-18.104-18.104v0zM623.452 220.924h137.476v138.042h-137.476v-138.042z" />
<glyph unicode="&#xe908;" glyph-name="plantas" horiz-adv-x="1329" d="M471.513 458.309c-12.457 0-23.046-9.966-23.046-23.046v-345.693c0-12.457 9.966-23.046 23.046-23.046h691.387c12.457 0 23.046 9.966 23.046 23.046v345.693c0 12.457-9.966 23.046-23.046 23.046-12.457 0-23.046-9.966-23.046-23.046v-323.27h-184.993v323.27c0 12.457-9.966 23.046-23.046 23.046h-230.462c-12.457 0-23.046-9.966-23.046-23.046v-323.27h-183.747v323.27c0 12.457-9.966 23.046-23.046 23.046v0zM725.022 412.216h184.993v-300.224h-184.993v300.224zM344.448 419.068l473.382 472.759 472.759-472.759c4.36-4.36 9.966-6.852 16.195-6.852 5.606 0 11.835 2.491 16.195 6.852 8.72 8.72 8.72 23.046 0 32.389l-237.937 237.937v234.822c0 12.457-9.966 23.046-23.046 23.046-12.457 0-23.046-9.966-23.046-23.046v-189.353l-205.547 205.547c-8.72 8.72-23.046 8.72-32.389 0l-488.331-488.954c-8.72-8.72-8.72-23.046 0-32.389 8.72-8.72 23.046-8.72 31.766 0v0zM257.869 927.33c12.457 0 23.046 9.966 23.046 23.046 0 12.457-9.966 23.046-23.046 23.046h-234.822c-13.080-0.623-23.046-10.589-23.046-23.669 0-12.457 9.966-23.046 23.046-23.046h94.676v-931.815h-94.676c-12.457 0-23.046-9.966-23.046-23.046 0-12.457 9.966-23.046 23.046-23.046h235.445c12.457 0 23.046 9.966 23.046 23.046 0 12.457-9.966 23.046-23.046 23.046h-95.299v932.438h94.676z" />
<glyph unicode="&#xe909;" glyph-name="sonora" horiz-adv-x="869" d="M338.631 341.802c0-3.816 1.431-7.631-3.816-6.677-4.769 0.954-4.293 4.769-4.769 8.585 0 0.954-4.293 5.246-5.723 6.677-4.293 3.816-0.954 6.2-10.016 7.631-1.431 0-2.385 0-3.816 0-4.769 0-0.954 7.154-4.769 7.631s-3.816-1.908-4.769 2.862c-0.954 5.246-3.339 2.385 2.862 6.677 3.816 2.385 10.016 0.477 10.016 6.677-3.339 6.2-1.908 3.816-3.816 10.016-1.431 5.723 0.954 4.293 2.862 7.631 1.431 2.385-3.339 12.878-0.954 16.693 2.862 4.769 27.186 9.062 27.186-2.862 0-5.246 0-10.016 0.954-14.785 0.477-1.908 3.816-5.723 4.769-6.677 1.908-1.908-0.477-7.154 0-10.97 0.477-3.339 0.954-6.677-1.908-9.539-5.246-5.246 1.431-8.108 0-11.924s-3.816 0.477-3.816-4.769c0.477-3.816-0.477-6.677-0.477-12.878v0zM47.218 972.8l488.391-229.41 298.567-16.693 3.339-107.789c9.062 0 18.601 3.339 21.463-4.769 1.431-3.816-0.477-10.97 0-14.785 0.477-2.862 3.816-1.908 3.816-6.2 0-12.401 2.385-25.755 2.385-38.633 0-4.769-12.401-70.111-2.385-70.111 1.431-4.769-4.293-40.063-8.585-42.448-3.816-2.385-1.908-9.062-3.816-12.401-1.431-2.862-8.585-4.769-8.585-8.585-0.477-6.2 7.154-16.216-3.816-16.216-8.585 0 0-42.925 0-47.694 0-28.14 17.647-6.677 17.647-32.432 11.447-15.262 12.401-18.601 12.401-36.248 0-9.539 1.431-15.262 1.431-24.801 0-10.016-2.862-10.97-12.401-10.016-7.154 0.954-20.986 3.339-23.847-4.769-4.769-14.308-40.063 11.924-50.079-4.769 9.539-16.693 10.493-48.648 26.232-57.71 6.677-3.816 0.954-13.831 4.769-16.216 13.354-7.631 17.647-1.431 17.647-22.416 0-10.016 17.647-36.725 8.585-47.694-1.908-2.385-7.631-24.801-3.816-28.617 10.016-10.016 1.908 0.954 7.631-16.216l10.493-6.677-23.847-55.803-34.34-18.601v-10.493l-34.34-13.354-16.693 4.293c-1.431 6.677-14.785 33.386-20.986 37.679-2.385 1.908-7.154 11.447-9.062 9.062-11.924-11.924 13.354-6.677-9.062 6.677-8.585 5.246-8.585-11.447-12.878-11.924-3.816-0.477-13.354 4.293-16.693 6.2-23.37 14.308 8.585 22.416-11.924 32.909-14.785 7.631-14.785 38.156-26.232 36.725-9.539-1.431-12.401-3.339-26.232 6.677-5.723 4.293-21.939 16.693-27.663 21.939-11.447 10.016-4.769 27.663-12.878 43.879-16.216 31.955 14.785 13.354-7.631 27.663-7.154 4.769 3.339 18.124 7.631 19.555 10.493 3.816-4.293 0.477-19.555 12.878-2.385-2.385-48.648 42.448-19.555 1.431 27.186 7.154-38.633-4.293-66.772 51.033-2.862 5.246-11.924 11.447-14.308 17.17-10.016 22.416-40.54 9.539-40.54 40.54 0 17.647-25.278 14.785-19.555 23.37 13.354 20.986 0 14.308-6.677 14.308-7.631 0-25.755 35.771-28.617 43.402-6.2 15.739 10.97 43.402-10.493 43.402-5.723 0-19.555-2.862-19.555 1.431 0 29.571 4.769 10.97 5.246 10.493 0 32.432-12.878 41.494-27.663 70.588-12.401 25.278-28.617 72.496-27.663 91.573 1.431 19.078-24.801 38.156-24.801 52.464 0 31.001 12.878 49.602 12.878 75.834 0 29.571-79.65 5.246-79.65 39.109 0 30.048-13.831 22.416-30.048 39.109-23.37 24.801-3.816-51.033-41.971-15.739 0 14.785-12.401 3.816-19.555 9.062-6.677 4.769-21.463 17.647-27.663 26.232s-10.016-3.816-12.878-3.816c-2.862-0.477-7.154-0.477-11.447-0.477v1.431c9.062 4.769 24.324 18.601 9.062 18.601-4.293 0-0.954-4.769-2.385-6.677-8.108-8.108-17.647 11.924-19.555 14.308-5.246 5.723-9.539 10.016-14.785 14.785-0.954 9.539 0 23.37-1.431 27.663-2.385 8.108 1.431 7.631 2.385 13.831-1.431 7.154-19.078 8.585-12.878 18.601 1.908 2.862 2.862 6.2 4.769 9.539 1.908 3.816 2.862 6.2 5.723 8.108 3.816 2.385 23.847 17.647 24.324 17.647 4.293 0 7.631-0.477 10.97 0z" />
<glyph unicode="&#xe90a;" glyph-name="tamaulipas" horiz-adv-x="516" d="M52.736 972.8l-22.022-22.022c5.216-1.739 12.749-2.318 12.749-8.113 0-8.113 12.749-8.113 17.965-8.113s4.057-4.057 2.318-6.954c-3.477-5.216-1.159-13.329-2.318-20.283 0-1.739-5.795-4.057-5.795-5.795 1.739-6.954 9.852-5.795 17.385-5.795-0.58-2.898-4.057-14.488-2.318-17.965 1.159-1.739 3.477-2.898 4.636-4.636 2.318-4.057-0.58-7.534 5.795-8.113s0.58-5.216-2.318-5.795c-9.852-1.159-8.113-4.057-9.272-13.908-0.58-2.898-0.58 0-2.318-1.159-2.898-1.739-2.318-10.431-2.318-15.067l28.396-1.159-10.431-37.668h23.76l16.226-24.919-8.693-30.135 51.577-29.555v-33.032l3.477-1.159h3.477l3.477-1.159c5.216-1.739 4.636-4.057 9.272-5.795-5.795 29.555 8.693 15.647 16.226-1.159 0.58-0.58 15.647-4.636 16.226-2.318 1.159 9.272-1.159 6.954 11.59 6.954 4.636 0 4.636-2.898 5.795-1.159 1.739 3.477 2.898 6.954 8.113 5.795 4.057-1.159 11.011 0 15.067-2.318 8.693-5.216 5.795-4.636 17.385-4.636v-94.461h25.499c-0.58-2.318-2.898-8.113 0-9.272 1.159 0 2.318-2.318 1.159-3.477-0.58-0.58-2.898-0.58-3.477-1.159s-0.58-1.159-2.318-2.318c-0.58-0.58-2.318-0.58-2.318-2.318v-3.477h-1.159c-0.58 0 0.58-1.739 0-2.318 0 0-0.58-2.898-1.159-3.477 0 0-3.477 0-3.477 0-1.159 0.58-1.159 4.636-1.159 4.636-0.58 0.58-7.534 0-9.272 0l-67.224-63.746h-16.226c0 3.477 0.58 8.693 0 12.749-0.58 2.898-2.898 0.58-3.477-1.159s-0.58-2.898-1.159-5.795c-0.58-9.272-12.749-4.057-12.749-12.749 0-3.477 0.58-2.898-2.318-3.477-3.477 0-2.898-3.477-3.477-5.795s-8.113-1.159-11.59-1.159c0-6.375-2.318-10.431 3.477-11.59 4.636-1.159-2.318 1.739 2.318 1.159 5.216-0.58 6.375-3.477 10.431-5.795 1.739-1.159 3.477 1.739 4.636-1.159s-2.898-2.318-3.477-3.477c-1.739-2.898 1.159-8.693 0-9.272-5.795-1.739-13.908 2.898-13.908-4.636 0-9.272-19.703-9.272-20.283 0-0.58 5.216 0 8.113-4.636 3.477-1.739-1.739 0-8.113-2.318-9.272 0-0.58 0.58-10.431 0-10.431h-1.159c-5.795 0 1.739 1.739-2.318-4.636 0 0-8.113-2.318-8.113-1.159v1.159c0 1.159-2.898 6.954-3.477 3.477-0.58-4.057-1.159-1.159-3.477-4.636 0-0.58-1.159-2.318-1.159-2.318-0.58-0.58-0.58-0.58-1.159-1.159-0.58-1.739-2.318-3.477-2.318-4.636-0.58-2.318-0.58-5.216-2.318-5.795h-29.555l-1.159-30.714 16.226-13.908 3.477-71.86 23.76-22.601c-1.159-3.477-1.739-5.216-2.318-8.113 0-1.159-0.58-2.318-1.159-3.477-1.159-3.477-6.375-4.636-10.431-5.795-2.898-0.58-4.057 1.159-4.636-2.318 0-2.318 0.58-1.739-1.159-2.318h-52.156c-11.59-16.226-9.272-41.145-9.272-61.428 0-23.181-9.852-6.375-23.76-9.272-15.647-2.898-0.58-34.191-18.544-38.248v-9.852c0-2.318 3.477-2.898 5.795-2.898 5.795-1.739 4.636 0.58 4.636-6.954 0-6.954-0.58-5.795 6.375-5.795h10.431c0-8.693 0.58-9.272-5.795-12.749-2.898-1.739-5.795-2.898-8.113-4.057-8.113-3.477-5.795-0.58-5.795-12.17 0-5.216-1.159-15.647 0-19.703 1.159-2.898 9.272 6.954 9.272 6.954 2.318 2.318 4.636-10.431 2.898-12.749-0.58-0.58-4.057-0.58-4.636-0.58-5.216 0-1.739-8.113 0.58-9.272 1.159-0.58 4.057 1.739 5.795 2.318 7.534 2.318 17.385 1.739 27.237 1.739 8.113 0 6.375-1.159 8.113-8.113 0-3.477-0.58-6.954-0.58-10.431 0-5.216-2.318-8.693 4.057-8.693 5.795 0 8.693 2.318 12.17 4.057 5.795 2.898 2.318-0.58 5.795-1.739 7.534-2.898 8.113 6.954 13.329 5.795 9.852-2.898 15.067-9.852 24.34-11.011 5.216-0.58 0 13.908 0 16.806 0 9.272 9.852 5.795 12.17 0.58 3.477-5.795 9.272-15.067 15.647-18.544 2.898-1.739 17.965 2.318 18.544-0.58 0.58-3.477 0.58-5.216 0-8.693 0-1.159-0.58-2.318-0.58-4.057 0-5.216-1.159-4.636 4.636-4.636s2.318-2.318 1.739-4.636c-0.58-1.739-1.739-15.647-2.318-15.647 6.954-4.636 29.555 5.216 42.304 4.636 2.318 0 9.852-2.318 10.431-4.057 5.795-14.488-2.318-6.375 12.17-6.375 4.636 0 25.499-4.636 28.396 0.58 2.318 4.057 2.318 8.693 8.113 8.693 15.067 0 14.488-7.534 23.181-8.693 6.954 24.34 21.442 0 32.453 11.011 2.318 2.318 6.954 0 6.954 4.057 1.159 8.113 7.534 9.852 15.647 9.272 25.499-0.58 14.488-32.453 42.304-34.771 2.898 0 13.908-4.636 25.499-7.534v0h4.057c2.318 0 5.216-2.898 6.375 1.159-4.636 15.067 6.375 11.59-10.431 20.862-6.954 3.477-4.057 29.555-4.636 40.566s-1.739 17.385 2.318 28.396c3.477 8.693 20.283 67.803 11.011 77.075 0 4.057-1.159 13.908 0 17.965 0.58 2.318 2.898 11.59 0.58 13.329-2.318 2.318-6.375 0-8.113 1.739-2.318 2.898 4.057 5.216 4.057 8.693 0 17.385 2.898 33.032 2.898 50.418 0 4.057-2.318 15.067-5.216 16.226-2.318 1.159-1.739 2.898-1.739 6.375 0.58 5.216-4.057 2.898-2.898 2.898-7.534 0-5.795-0.58-6.375 0-2.898 2.898 7.534 3.477 0.58 4.057-5.795 0.58-10.431-2.318-8.693 6.375 0.58 2.898 0.58 0-0.58 1.739 0 0 0 4.057 0 4.057 2.898 1.739 6.954-1.159 8.693-1.739 1.159 0 3.477 4.057 4.636 4.636 4.057 2.318 5.216 0 8.693-2.318 6.375-4.057 1.739 13.908 1.739 16.226-3.477 1.159-2.898 0.58-1.739 4.057 1.739 3.477 1.739 2.898 1.739 6.375 0 5.216-11.011-2.898-11.011 4.636 0 2.318 0 5.216 0 8.113 0 2.318-1.739 0-2.318 0.58-1.739 2.318 3.477 2.318 4.636 2.318 3.477 0.58 2.898 7.534 2.318 10.431-1.159 3.477 0 5.216 2.898 6.375 1.739 0.58 4.057 1.159 4.057 2.898 0 7.534 0.58 7.534-4.057 13.329-5.795 6.954-1.159 11.59-2.318 13.908-4.057 6.375-0.58 29.555-13.329 19.703-2.898-2.318-6.375 0-6.375 2.898-0.58 6.954-9.272-3.477-5.216 5.216 1.739 3.477 1.739 15.647 4.057 15.647 11.59 0 10.431-12.749 13.329-22.601 0-0.58 1.739 2.898 1.739 2.898 3.477 5.216-4.057 7.534 2.898 15.067 17.385-1.739 3.477-16.806 5.216-23.181 1.739-6.954 2.318-8.113 3.477-15.067 0-1.739 1.159-1.739 1.159-4.636 0-8.693 4.636-5.216 4.636-12.17 0-13.329 3.477-33.612 5.216-8.693 1.159 13.329-7.534 22.022-7.534 37.089 0 4.636 4.057 2.318 5.216 7.534 4.057 14.488-2.898 27.237 4.636 38.248 0.58 1.159 4.636 15.647 4.636 17.385 0 6.954-3.477 9.852-9.852 5.216-2.898-1.739-3.477-23.181-4.636-28.396-0.58-5.216-7.534-1.739-7.534 6.375 0 14.488 7.534 9.272 7.534 20.862 0 2.898-6.375 6.954 2.318 8.693 4.057 0.58 7.534 4.057 7.534 8.693-4.636 0-5.795-1.739-6.375 2.318 0 1.159-0.58 4.057-1.159 1.159 0-0.58 0-6.375 0-6.375-1.739-1.739-3.477 0-4.636 2.318s-3.477 8.113-2.318 11.011c1.739 4.636 3.477 5.216 7.534 5.216 6.375 0.58 5.795 2.318 5.216 8.693-0.58 4.057-2.318 1.739-5.216 2.318-1.739 0-1.739 1.159-4.636 1.159-2.318 0-3.477 0.58-4.636-1.159-1.739-2.898-2.898-3.477-7.534-4.636-5.795-0.58-2.898 1.159-2.318 2.318 1.159 1.739-1.739 3.477 1.159 4.636 1.739 0.58 3.477 1.739 5.216 2.318s1.739 0 2.318 2.318c0 0.58 0.58 2.898 1.159 3.477 1.739 2.898 4.057 4.636 5.216 7.534 0.58 1.739 1.159 2.898 2.318 4.636 4.636 5.795 6.954 5.216 0 5.216-5.216 0-10.431 0-15.647 0-2.318 0-0.58 4.636 0 5.216 1.159 1.739 4.636 1.159 6.375 1.159 8.113 0 7.534-1.739 7.534 4.636 0 8.113 0.58 2.318 6.375 5.216 0 0 0 2.898 0 3.477 0 2.318 0.58 2.898-1.159 3.477-2.318 0-5.216 0-7.534 0-2.898 0 0.58-6.375-2.318-3.477-1.159 1.159-1.159 2.318-2.318 3.477-11.59 17.385-3.477 0.58-3.477 6.375 0 1.739-2.898 1.159-4.636 1.159-4.057 0-0.58-1.159-3.477-2.318 1.159 1.739 2.318 3.477 3.477 5.216 0.58 1.159-1.159 2.898 0 3.477 2.318 1.159 6.375-4.057 7.534 0 0.58 2.318-1.159 4.057-1.159 6.375 0 5.216 1.159 5.216 5.216 5.216 1.739 0 6.375 0.58 7.534 0 2.318-1.159 2.898-4.636 3.477-6.375 1.739-4.636 1.739-4.636 5.216-5.216 2.318-0.58 0-2.898 0-5.216 0 0 5.795-4.057 6.375-1.159 1.159 3.477-4.057 7.534 1.159 7.534 2.318 0 9.852-0.58 11.011 0 0.58 0.58 0 1.739 0 2.318 0 2.318 0.58 4.636 0 6.375 0 0.58-2.898-1.159-3.477 2.318-0.58 7.534 9.852 2.318 12.17-1.159 1.159-1.739-4.636-8.113-5.216-8.693-1.159-0.58-2.318-2.318-2.318-4.636 0-2.898 1.159-2.318 1.159-5.216-0.58-6.954-1.739-23.181-5.216-26.078-2.898-2.318-2.318-5.795-2.318-9.852 0-6.954-6.375-16.226-11.011-22.022-3.477-4.636-2.318-27.817-2.318-35.93 5.216 5.216 6.375 5.795 2.318 11.011-1.159 1.159 1.159 4.057 1.159 4.636 0.58 3.477-1.159 11.59 0 14.488 1.739 3.477 5.216 9.272 7.534 13.329 2.898 5.216 5.216 6.375 8.693 11.011 13.908 16.806 28.396 60.269 28.396 73.598 0 35.93 30.714 49.838 30.714 82.291 0 11.59 0 22.022-0.58 30.714-12.17-1.739-26.078-6.954-28.976-12.17-3.477-5.795-13.908 0.58-16.806-3.477-11.59-14.488-23.76-6.954-33.032 6.375-11.011 15.647-42.304 11.59-63.167 12.17-11.011 0-24.919-2.898-33.032-3.477-22.601-1.159-19.703 5.216-35.35 19.703-4.636 4.057-20.862-0.58-23.181 4.636-5.795 13.908-2.318 6.375-13.329 12.17-13.908 7.534-22.601 18.544-41.725 16.806-13.329 1.739-34.771 9.272-51.577 19.703-0.58-0.58-1.739-0.58-4.636-0.58-9.272 0-12.17 11.59-20.862 15.067-4.057 1.739-3.477 7.534-4.057 11.59-1.739 10.431-12.749-2.318-12.749 9.272 1.739 0 6.954 4.057 6.954 6.375 0 7.534-4.057 5.795-4.057 13.329 0 2.898-4.636 6.954-7.534 6.954-5.216 0 0-5.795-6.954-4.636-6.954 1.739 0.58 7.534 0.58 11.011 0.58 6.375-2.898 1.739-4.636 8.113-1.159 4.057 1.159 6.954-1.739 10.431-2.898 4.636-4.636 9.272-4.636 15.647-6.375 25.499-14.488 60.849-16.806 90.984-6.375 20.283-23.76 28.396-39.986 39.407z" />
<glyph unicode="&#xe90b;" glyph-name="cross" d="M548.198 435.2l289.075 289.075c9.984 9.984 9.984 26.214 0 36.198s-26.214 9.984-36.198 0l-289.075-289.075-289.075 289.075c-9.984 9.984-26.214 9.984-36.198 0s-9.984-26.214 0-36.198l289.075-289.075-289.075-289.075c-9.984-9.984-9.984-26.214 0-36.198 5.018-5.018 11.571-7.475 18.125-7.475s13.107 2.509 18.125 7.475l289.075 289.075 289.075-289.075c5.018-5.018 11.571-7.475 18.125-7.475s13.107 2.509 18.125 7.475c9.984 9.984 9.984 26.214 0 36.198l-289.075 289.075z" />
<glyph unicode="&#xe90c;" glyph-name="terreno" d="M1003.194 972.8h-982.388c-11.809 0-20.806-8.997-20.806-20.806v-982.95c0-11.247 8.997-20.806 20.806-20.806h599.442c11.247 0 20.806 8.997 20.806 20.806 0 11.247-8.997 20.806-20.806 20.806h-579.198v479.666h286.787v-197.377c0-11.247 8.997-20.806 20.806-20.806 11.247 0 20.806 8.997 20.806 20.806v430.744c0 11.247-8.997 20.806-20.806 20.806-11.247 0-20.806-8.997-20.806-20.806v-192.316h-286.787v421.184h558.392v-257.546c0-11.247 8.997-20.806 20.806-20.806h217.621c11.247 0 20.806 8.997 20.806 20.806 0 11.247-8.997 20.806-20.806 20.806h-196.815v236.74h342.458v-638.805h-362.702c-11.247 0-20.806-8.997-20.806-20.806 0-11.247 8.997-20.806 20.806-20.806h362.702v-262.045h-145.643c-11.247 0-20.806-8.997-20.806-20.806 0-11.247 8.997-20.806 20.806-20.806h165.887c11.247 0 20.806 8.997 20.806 20.806v983.512c-0.562 11.809-9.56 20.806-21.368 20.806v0z" />
<glyph unicode="&#xe90d;" glyph-name="chevron-left2" d="M716.8-51.2c6.554 0 13.107 2.509 18.125 7.475 9.984 9.984 9.984 26.214 0 36.198l-442.675 442.675 442.675 442.675c9.984 9.984 9.984 26.214 0 36.198s-26.214 9.984-36.198 0l-460.8-460.8c-9.984-9.984-9.984-26.214 0-36.198l460.8-460.8c5.018-5.018 11.571-7.475 18.125-7.475z" />
<glyph unicode="&#xe90e;" glyph-name="chevron-right2" d="M256-51.2c-6.554 0-13.107 2.509-18.125 7.475-9.984 9.984-9.984 26.214 0 36.198l442.675 442.675-442.675 442.675c-9.984 9.984-9.984 26.214 0 36.198s26.214 9.984 36.198 0l460.8-460.8c9.984-9.984 9.984-26.214 0-36.198l-460.8-460.8c-5.018-5.018-11.571-7.475-18.125-7.475z" />
<glyph unicode="&#xe90f;" glyph-name="chevron-up" d="M0 204.8c0-6.554 2.509-13.107 7.475-18.125 9.984-9.984 26.214-9.984 36.198 0l442.675 442.675 442.675-442.675c9.984-9.984 26.214-9.984 36.198 0s9.984 26.214 0 36.198l-460.8 460.8c-9.984 9.984-26.214 9.984-36.198 0l-460.8-460.8c-5.018-5.018-7.475-11.571-7.475-18.125z" />
<glyph unicode="&#xe910;" glyph-name="chevron-left" d="M637.542 741.581c22.835-22.323 24.627-53.402 0-80.691l-191.846-200.090 191.846-200.090c24.627-27.29 22.835-58.419 0-80.589-22.784-22.323-61.286-20.89-82.688 0-21.402 20.787-230.502 240.384-230.502 240.384-11.418 11.11-17.152 25.702-17.152 40.294s5.734 29.184 17.152 40.397c0 0 209.101 219.494 230.502 240.384 21.402 20.941 59.904 22.323 82.688 0z" />
<glyph unicode="&#xe911;" glyph-name="chevron-right" d="M469.146 741.581c21.402-20.89 230.502-240.384 230.502-240.384 11.418-11.213 17.152-25.805 17.152-40.397s-5.734-29.184-17.152-40.294c0 0-209.101-219.597-230.502-240.384-21.402-20.89-59.904-22.323-82.688 0-22.835 22.221-24.627 53.299 0 80.589l191.846 200.090-191.846 200.090c-24.627 27.29-22.835 58.419 0 80.691 22.784 22.323 61.286 20.941 82.688 0z" />
<glyph unicode="&#xe912;" glyph-name="calendar" d="M870.4 819.2h-51.2v-102.4h-153.6v102.4h-307.2v-102.4h-153.6v102.4h-51.2c-56.371 0-102.4-46.080-102.4-102.4v-614.4c0-56.32 46.029-102.4 102.4-102.4h716.8c56.32 0 102.4 46.080 102.4 102.4v614.4c0 56.32-46.080 102.4-102.4 102.4zM870.4 102.4h-716.8v409.6h716.8v-409.6zM332.8 921.6h-102.4v-179.2h102.4v179.2zM793.6 921.6h-102.4v-179.2h102.4v179.2z" />
<glyph unicode="&#xe913;" glyph-name="eye" d="M512 747.52c-335.923 0-512-247.398-512-286.72 0-39.219 176.077-286.72 512-286.72 335.872 0 512 247.501 512 286.72 0 39.322-176.128 286.72-512 286.72zM512 240.282c-125.696 0-227.584 98.714-227.584 220.518s101.888 220.621 227.584 220.621c125.696 0 227.533-98.816 227.533-220.621s-101.837-220.518-227.533-220.518zM512 460.8c-20.838 22.886 33.946 110.285 0 110.285-62.874 0-113.818-49.408-113.818-110.285s50.944-110.285 113.818-110.285c62.822 0 113.818 49.408 113.818 110.285 0 28.006-96.102-19.405-113.818 0z" />
<glyph unicode="&#xe914;" glyph-name="minus" d="M819.2 460.8c0-28.314-2.458-51.2-30.771-51.2h-552.858c-28.262 0-30.771 22.886-30.771 51.2s2.509 51.2 30.771 51.2h552.909c28.262 0 30.72-22.886 30.72-51.2z" />
<glyph unicode="&#xe915;" glyph-name="plus" d="M819.2 460.8c0-28.314-2.458-51.2-30.771-51.2h-225.229v-225.229c0-28.262-22.886-30.771-51.2-30.771s-51.2 2.509-51.2 30.771v225.229h-225.229c-28.262 0-30.771 22.886-30.771 51.2s2.509 51.2 30.771 51.2h225.229v225.229c0 28.314 22.886 30.771 51.2 30.771s51.2-2.458 51.2-30.771v-225.229h225.229c28.314 0 30.771-22.886 30.771-51.2z" />
<glyph unicode="&#xe916;" glyph-name="chevron-down" d="M0 665.6c0 6.554 2.509 13.107 7.475 18.125 9.984 9.984 26.214 9.984 36.198 0l442.675-442.675 442.675 442.675c9.984 9.984 26.214 9.984 36.198 0s9.984-26.214 0-36.198l-460.8-460.8c-9.984-9.984-26.214-9.984-36.198 0l-460.8 460.8c-5.018 5.018-7.475 11.571-7.475 18.125z" />
<glyph unicode="&#xe917;" glyph-name="home" d="M1017.395 349.952l-452.045 499.61c-14.029 15.514-32.973 24.064-53.35 24.064 0 0 0 0 0 0-20.326 0-39.27-8.55-53.35-24.064l-452.045-499.61c-9.472-10.496-8.653-26.675 1.792-36.147 4.915-4.454 11.059-6.605 17.152-6.605 6.963 0 13.926 2.816 18.995 8.448l109.005 120.474v-410.522c0-42.342 34.458-76.8 76.8-76.8h563.2c42.342 0 76.8 34.458 76.8 76.8v410.522l109.005-120.474c9.472-10.496 25.651-11.315 36.147-1.792s11.315 25.651 1.792 36.147zM614.4 0h-204.8v230.4c0 14.131 11.469 25.6 25.6 25.6h153.6c14.131 0 25.6-11.469 25.6-25.6v-230.4zM819.2 25.6c0-14.131-11.469-25.6-25.6-25.6h-128v230.4c0 42.342-34.458 76.8-76.8 76.8h-153.6c-42.342 0-76.8-34.458-76.8-76.8v-230.4h-128c-14.131 0-25.6 11.469-25.6 25.6v467.098l291.84 322.56c4.198 4.659 9.677 7.219 15.36 7.219s11.162-2.56 15.36-7.219l291.84-322.56v-467.098z" />
<glyph unicode="&#xe918;" glyph-name="phone-handset" d="M819.2-51.2c-90.675 0-187.136 25.702-286.72 76.39-91.802 46.746-182.477 113.664-262.246 193.536s-146.586 170.65-193.28 262.502c-50.586 99.635-76.288 196.096-76.288 286.771 0 58.778 54.784 115.558 78.285 137.216 33.843 31.181 87.091 67.584 125.798 67.584 19.251 0 41.779-12.595 71.014-39.629 21.76-20.173 46.285-47.514 70.81-79.053 14.797-19.046 88.576-116.275 88.576-162.918 0-38.246-43.264-64.87-89.037-92.979-17.715-10.854-35.994-22.118-49.203-32.717-14.131-11.315-16.64-17.306-17.050-18.637 48.589-121.139 197.12-269.67 318.208-318.208 1.075 0.358 7.066 2.714 18.586 17.050 10.598 13.21 21.862 31.539 32.717 49.203 28.16 45.773 54.733 89.037 92.979 89.037 46.643 0 143.872-73.779 162.918-88.576 31.539-24.525 58.88-49.050 79.053-70.81 27.034-29.184 39.629-51.763 39.629-71.014 0-38.707-36.403-92.109-67.533-126.106-21.709-23.654-78.49-78.694-137.267-78.694zM204.493 921.6c-13.722-0.256-50.637-17.050-90.778-54.016-38.093-35.123-61.798-73.267-61.798-99.584 0-344.525 423.117-768 767.283-768 26.266 0 64.41 23.808 99.533 62.106 37.018 40.346 53.811 77.414 54.067 91.187-1.638 9.728-28.57 47.565-102.246 104.294-63.334 48.742-114.688 74.906-127.898 75.213-0.922-0.256-6.656-2.458-18.278-17.203-10.086-12.851-20.89-30.413-31.386-47.411-28.672-46.643-55.757-90.726-95.13-90.726-6.349 0-12.595 1.229-18.586 3.635-134.4 53.76-293.325 212.685-347.085 347.085-6.451 16.128-7.475 41.421 24.269 70.195 16.896 15.309 40.243 29.645 62.874 43.571 16.998 10.445 34.611 21.248 47.411 31.386 14.746 11.622 16.947 17.357 17.203 18.278-0.358 13.21-26.47 64.563-75.213 127.898-56.73 73.677-94.566 100.557-104.294 102.246z" />
<glyph unicode="&#xe919;" glyph-name="map-marker" d="M512-51.2c-7.834 0-15.258 3.584-20.122 9.779-2.918 3.738-72.602 92.877-143.206 224.512-41.574 77.466-74.752 153.549-98.56 226.099-30.054 91.494-45.261 177.766-45.261 256.41 0 169.37 137.83 307.2 307.2 307.2s307.2-137.83 307.2-307.2c0-78.643-15.258-164.864-45.261-256.41-23.808-72.55-56.986-148.634-98.56-226.099-70.656-131.635-140.288-220.774-143.206-224.512-4.864-6.195-12.288-9.779-20.122-9.779zM512 921.6c-141.158 0-256-114.842-256-256 0-166.605 74.906-341.197 137.779-458.291 46.182-86.067 92.621-154.317 118.221-189.952 25.702 35.789 72.448 104.448 118.682 190.771 62.618 116.89 137.318 291.174 137.318 457.472 0 141.158-114.842 256-256 256zM512 512c-84.685 0-153.6 68.915-153.6 153.6s68.915 153.6 153.6 153.6 153.6-68.915 153.6-153.6-68.915-153.6-153.6-153.6zM512 768c-56.474 0-102.4-45.926-102.4-102.4s45.926-102.4 102.4-102.4c56.474 0 102.4 45.926 102.4 102.4s-45.926 102.4-102.4 102.4z" />
<glyph unicode="&#xe91a;" glyph-name="pencil" d="M978.125 926.925c-28.774 28.774-67.021 44.595-107.725 44.595s-78.95-15.821-107.725-44.595l-652.8-652.8c-2.662-2.662-4.659-5.837-5.939-9.37l-102.4-281.6c-3.379-9.37-1.075-19.814 5.939-26.829 4.864-4.864 11.418-7.475 18.125-7.475 2.918 0 5.888 0.512 8.755 1.536l281.6 102.4c3.533 1.28 6.707 3.328 9.37 5.939l652.8 652.8c28.774 28.774 44.595 67.021 44.595 107.725s-15.821 78.95-44.595 107.725zM293.12 98.918l-224.717-81.715 81.715 224.717 566.682 566.682 143.002-143.002-566.682-566.682zM941.875 747.725l-45.875-45.875-143.002 143.002 45.875 45.875c19.098 19.098 44.493 29.594 71.475 29.594s52.378-10.496 71.475-29.594c19.098-19.098 29.594-44.493 29.594-71.475s-10.496-52.378-29.594-71.475z" />
<glyph unicode="&#xe91b;" glyph-name="paperclip" d="M486.4-51.2c-127.027 0-230.4 103.373-230.4 230.4v614.4c0 98.816 80.384 179.2 179.2 179.2s179.2-80.384 179.2-179.2v-563.2c0-70.554-57.446-128-128-128s-128 57.446-128 128v307.2c0 14.131 11.469 25.6 25.6 25.6s25.6-11.469 25.6-25.6v-307.2c0-42.342 34.458-76.8 76.8-76.8s76.8 34.458 76.8 76.8v563.2c0 70.554-57.446 128-128 128s-128-57.446-128-128v-614.4c0-98.816 80.384-179.2 179.2-179.2s179.2 80.384 179.2 179.2v358.4c0 14.131 11.469 25.6 25.6 25.6s25.6-11.469 25.6-25.6v-358.4c0-127.027-103.373-230.4-230.4-230.4z" />
<glyph unicode="&#xe91c;" glyph-name="user" d="M486.4 409.6c-155.29 0-281.6 126.31-281.6 281.6s126.31 281.6 281.6 281.6 281.6-126.31 281.6-281.6-126.31-281.6-281.6-281.6zM486.4 921.6c-127.027 0-230.4-103.373-230.4-230.4s103.373-230.4 230.4-230.4c127.027 0 230.4 103.373 230.4 230.4s-103.373 230.4-230.4 230.4zM896-51.2h-819.2c-42.342 0-76.8 34.458-76.8 76.8 0 3.482 0.717 86.272 62.72 168.96 36.096 48.128 85.504 86.374 146.893 113.613 74.957 33.331 168.090 50.227 276.787 50.227s201.83-16.896 276.787-50.227c61.389-27.29 110.797-65.485 146.893-113.613 62.003-82.688 62.72-165.478 62.72-168.96 0-42.342-34.458-76.8-76.8-76.8zM486.4 307.2c-178.534 0-310.272-48.794-380.979-141.107-52.992-69.171-54.17-139.878-54.221-140.595 0-14.029 11.469-25.498 25.6-25.498h819.2c14.131 0 25.6 11.469 25.6 25.6 0 0.614-1.178 71.322-54.221 140.493-70.758 92.314-202.496 141.107-380.979 141.107z" />
<glyph unicode="&#xe91d;" glyph-name="thumbs-up" d="M968.499 398.95c22.682 26.163 35.584 69.376 35.584 110.541 0 27.187-5.888 50.995-17.050 68.864-14.541 23.245-37.786 36.045-65.434 36.045h-134.042c72.96 132.659 91.392 232.602 54.784 297.318-25.549 45.107-72.346 61.082-104.704 61.082-12.8 0-23.654-9.472-25.344-22.17-9.165-67.533-60.826-148.122-141.722-221.082-77.517-69.888-172.749-125.747-270.643-159.232-12.339 26.010-38.81 44.032-69.427 44.032h-153.6c-42.342 0-76.8-34.458-76.8-76.8v-460.8c0-42.342 34.458-76.8 76.8-76.8h153.6c32.461 0 60.211 20.224 71.475 48.742 100.403-12.595 138.189-32.768 174.797-52.326 45.824-24.474 89.037-47.616 230.554-47.616 36.864 0 71.578 9.626 97.792 27.085 25.6 17.050 41.984 41.011 47.411 68.762 20.429 8.294 38.554 27.443 52.429 55.91 13.517 27.699 22.272 63.078 22.272 90.163 0 5.069-0.307 9.728-0.87 14.029 12.954 9.523 24.576 24.218 34.15 43.571 13.824 27.904 22.118 62.874 22.118 93.491 0 21.709-4.045 39.782-11.981 53.811-0.666 1.126-1.331 2.253-1.997 3.328zM230.4 51.2h-153.6c-14.131 0-25.6 11.469-25.6 25.6v460.8c0 14.131 11.469 25.6 25.6 25.6h153.6c14.131 0 25.6-11.469 25.6-25.6v-460.749c0 0 0-0.051 0-0.051 0-14.131-11.469-25.6-25.6-25.6zM938.957 446.771c-7.731-15.565-15.565-21.197-18.944-21.197-14.131 0-25.6-11.469-25.6-25.6s11.469-25.6 25.6-25.6c2.15 0 3.686 0 5.99-3.994 3.379-5.99 5.325-16.384 5.325-28.57 0-22.784-6.451-49.869-16.794-70.758-10.138-20.429-20.429-27.853-24.934-27.853-14.131 0-25.6-11.469-25.6-25.6 0-9.062 4.71-17.050 11.827-21.606 1.587-16.23-5.99-59.648-25.651-87.962-7.424-10.701-15.258-16.845-21.402-16.845-14.131 0-25.6-11.469-25.6-25.6 0-45.056-49.766-65.587-96-65.587-128.666 0-164.71 19.251-206.438 41.574-39.014 20.838-82.842 44.288-193.587 58.061v419.174c107.571 35.277 212.582 96.102 297.574 172.698 81.562 73.523 135.117 152.986 153.293 226.611 13.926-4.454 29.645-13.875 39.731-31.642 17.101-30.208 29.901-107.315-76.442-284.518-4.762-7.885-4.864-17.766-0.307-25.805s13.056-13.005 22.272-13.005h178.33c10.189 0 16.742-3.584 22.016-11.981 5.99-9.574 9.267-24.422 9.267-41.728 0-21.709-5.222-45.158-13.926-62.72z" />
<glyph unicode="&#xe91e;" glyph-name="eye2" d="M1017.446 452.301c-2.406 2.714-60.518 66.816-151.347 131.686-53.606 38.298-107.52 68.813-160.256 90.778-66.816 27.853-132.045 41.984-193.843 41.984s-127.027-14.131-193.843-41.984c-52.736-21.965-106.65-52.531-160.256-90.778-90.829-64.87-148.941-129.024-151.347-131.686-8.755-9.728-8.755-24.525 0-34.253 2.406-2.714 60.518-66.816 151.347-131.686 53.606-38.298 107.52-68.813 160.256-90.778 66.816-27.853 132.045-41.984 193.843-41.984s127.027 14.131 193.843 41.984c52.736 21.965 106.65 52.531 160.256 90.778 90.829 64.87 148.941 129.024 151.347 131.686 8.755 9.728 8.755 24.525 0 34.253zM643.789 643.174c46.438-39.066 73.011-95.898 73.011-156.774 0-112.947-91.853-204.8-204.8-204.8s-204.8 91.853-204.8 204.8c0 60.826 26.573 117.709 73.011 156.774 42.086 13.722 86.579 22.426 131.789 22.426s89.702-8.704 131.789-22.426zM835.43 327.373c-78.49-55.91-198.298-122.573-323.43-122.573s-244.941 66.662-323.43 122.573c-59.238 42.189-104.55 84.89-127.437 107.827 22.886 22.938 68.198 65.587 127.437 107.827 27.136 19.354 59.187 39.936 94.72 58.624-17.766-35.226-27.29-74.496-27.29-115.251 0-141.158 114.842-256 256-256s256 114.842 256 256c0 40.755-9.523 80.026-27.29 115.251 35.533-18.688 67.584-39.322 94.72-58.624 59.238-42.189 104.55-84.89 127.437-107.827-22.886-22.938-68.198-65.587-127.437-107.827z" />
<glyph unicode="&#xe91f;" glyph-name="calendar-full" d="M947.2 870.4h-128v25.6c0 14.131-11.469 25.6-25.6 25.6s-25.6-11.469-25.6-25.6v-25.6h-512v25.6c0 14.131-11.469 25.6-25.6 25.6s-25.6-11.469-25.6-25.6v-25.6h-128c-42.342 0-76.8-34.458-76.8-76.8v-716.8c0-42.342 34.458-76.8 76.8-76.8h870.4c42.342 0 76.8 34.458 76.8 76.8v716.8c0 42.342-34.458 76.8-76.8 76.8zM76.8 819.2h128v-76.8c0-14.131 11.469-25.6 25.6-25.6s25.6 11.469 25.6 25.6v76.8h512v-76.8c0-14.131 11.469-25.6 25.6-25.6s25.6 11.469 25.6 25.6v76.8h128c14.131 0 25.6-11.469 25.6-25.6v-128h-921.6v128c0 14.131 11.469 25.6 25.6 25.6zM947.2 51.2h-870.4c-14.131 0-25.6 11.469-25.6 25.6v537.6h921.6v-537.6c0-14.131-11.469-25.6-25.6-25.6zM384 460.8h-51.2c-14.131 0-25.6 11.469-25.6 25.6s11.469 25.6 25.6 25.6h51.2c14.131 0 25.6-11.469 25.6-25.6s-11.469-25.6-25.6-25.6zM537.6 460.8h-51.2c-14.131 0-25.6 11.469-25.6 25.6s11.469 25.6 25.6 25.6h51.2c14.131 0 25.6-11.469 25.6-25.6s-11.469-25.6-25.6-25.6zM691.2 460.8h-51.2c-14.131 0-25.6 11.469-25.6 25.6s11.469 25.6 25.6 25.6h51.2c14.131 0 25.6-11.469 25.6-25.6s-11.469-25.6-25.6-25.6zM844.8 460.8h-51.2c-14.131 0-25.6 11.469-25.6 25.6s11.469 25.6 25.6 25.6h51.2c14.131 0 25.6-11.469 25.6-25.6s-11.469-25.6-25.6-25.6zM230.4 358.4h-51.2c-14.131 0-25.6 11.469-25.6 25.6s11.469 25.6 25.6 25.6h51.2c14.131 0 25.6-11.469 25.6-25.6s-11.469-25.6-25.6-25.6zM384 358.4h-51.2c-14.131 0-25.6 11.469-25.6 25.6s11.469 25.6 25.6 25.6h51.2c14.131 0 25.6-11.469 25.6-25.6s-11.469-25.6-25.6-25.6zM537.6 358.4h-51.2c-14.131 0-25.6 11.469-25.6 25.6s11.469 25.6 25.6 25.6h51.2c14.131 0 25.6-11.469 25.6-25.6s-11.469-25.6-25.6-25.6zM691.2 358.4h-51.2c-14.131 0-25.6 11.469-25.6 25.6s11.469 25.6 25.6 25.6h51.2c14.131 0 25.6-11.469 25.6-25.6s-11.469-25.6-25.6-25.6zM844.8 358.4h-51.2c-14.131 0-25.6 11.469-25.6 25.6s11.469 25.6 25.6 25.6h51.2c14.131 0 25.6-11.469 25.6-25.6s-11.469-25.6-25.6-25.6zM230.4 256h-51.2c-14.131 0-25.6 11.469-25.6 25.6s11.469 25.6 25.6 25.6h51.2c14.131 0 25.6-11.469 25.6-25.6s-11.469-25.6-25.6-25.6zM384 256h-51.2c-14.131 0-25.6 11.469-25.6 25.6s11.469 25.6 25.6 25.6h51.2c14.131 0 25.6-11.469 25.6-25.6s-11.469-25.6-25.6-25.6zM537.6 256h-51.2c-14.131 0-25.6 11.469-25.6 25.6s11.469 25.6 25.6 25.6h51.2c14.131 0 25.6-11.469 25.6-25.6s-11.469-25.6-25.6-25.6zM691.2 256h-51.2c-14.131 0-25.6 11.469-25.6 25.6s11.469 25.6 25.6 25.6h51.2c14.131 0 25.6-11.469 25.6-25.6s-11.469-25.6-25.6-25.6zM844.8 256h-51.2c-14.131 0-25.6 11.469-25.6 25.6s11.469 25.6 25.6 25.6h51.2c14.131 0 25.6-11.469 25.6-25.6s-11.469-25.6-25.6-25.6zM230.4 153.6h-51.2c-14.131 0-25.6 11.469-25.6 25.6s11.469 25.6 25.6 25.6h51.2c14.131 0 25.6-11.469 25.6-25.6s-11.469-25.6-25.6-25.6zM384 153.6h-51.2c-14.131 0-25.6 11.469-25.6 25.6s11.469 25.6 25.6 25.6h51.2c14.131 0 25.6-11.469 25.6-25.6s-11.469-25.6-25.6-25.6zM537.6 153.6h-51.2c-14.131 0-25.6 11.469-25.6 25.6s11.469 25.6 25.6 25.6h51.2c14.131 0 25.6-11.469 25.6-25.6s-11.469-25.6-25.6-25.6zM691.2 153.6h-51.2c-14.131 0-25.6 11.469-25.6 25.6s11.469 25.6 25.6 25.6h51.2c14.131 0 25.6-11.469 25.6-25.6s-11.469-25.6-25.6-25.6zM844.8 153.6h-51.2c-14.131 0-25.6 11.469-25.6 25.6s11.469 25.6 25.6 25.6h51.2c14.131 0 25.6-11.469 25.6-25.6s-11.469-25.6-25.6-25.6z" />
<glyph unicode="&#xe920;" glyph-name="cross-circle" d="M733.798 249.549l-208.896 185.651 208.896 185.651c10.547 9.37 11.52 25.549 2.15 36.147s-25.549 11.52-36.147 2.15l-213.402-189.696-213.402 189.696c-10.547 9.37-26.726 8.448-36.147-2.15s-8.448-26.726 2.15-36.147l208.896-185.651-208.896-185.651c-10.547-9.37-11.52-25.549-2.15-36.147 5.069-5.683 12.083-8.602 19.149-8.602 6.042 0 12.134 2.15 16.998 6.451l213.402 189.696 213.402-189.696c4.864-4.352 10.957-6.451 16.998-6.451 7.066 0 14.080 2.918 19.149 8.602 9.37 10.547 8.448 26.726-2.15 36.147zM486.4-51.2c-129.946 0-252.058 50.586-343.962 142.438s-142.438 214.016-142.438 343.91c0 129.946 50.586 252.058 142.438 343.962s214.016 142.49 343.962 142.49c129.946 0 252.058-50.586 343.962-142.49s142.438-214.016 142.438-343.962-50.586-252.058-142.438-343.91c-91.853-91.853-214.016-142.438-343.962-142.438zM486.4 870.4c-239.974 0-435.2-195.226-435.2-435.2s195.226-435.2 435.2-435.2 435.2 195.226 435.2 435.2-195.226 435.2-435.2 435.2z" />
<glyph unicode="&#xe921;" glyph-name="chevron-down2" d="M231.219 586.342c22.323 22.835 53.402 24.627 80.691 0l200.090-191.846 200.090 191.846c27.29 24.627 58.419 22.835 80.589 0 22.323-22.784 20.89-61.286 0-82.688-20.787-21.402-240.384-230.502-240.384-230.502-11.11-11.418-25.702-17.152-40.294-17.152s-29.184 5.734-40.397 17.152c0 0-219.494 209.101-240.384 230.502-20.941 21.402-22.323 59.904 0 82.688z" />
<glyph unicode="&#xe922;" glyph-name="heart" d="M486.4 0c-4.301 0-8.55 1.075-12.442 3.226-4.813 2.662-119.091 66.611-235.11 171.366-68.659 61.952-123.443 125.338-162.97 188.416-50.381 80.435-75.878 160.717-75.878 238.592 0 148.224 120.576 268.8 268.8 268.8 50.176 0 103.475-18.79 150.067-52.941 27.238-19.968 50.432-44.032 67.533-69.581 17.101 25.549 40.294 49.613 67.533 69.581 46.592 34.15 99.891 52.941 150.067 52.941 148.224 0 268.8-120.576 268.8-268.8 0-77.875-25.549-158.157-75.878-238.592-39.475-63.078-94.31-126.464-162.918-188.416-116.019-104.755-230.298-168.704-235.11-171.366-3.891-2.15-8.141-3.226-12.442-3.226zM268.8 819.2c-119.962 0-217.6-97.638-217.6-217.6 0-155.648 120.32-297.062 221.235-388.352 90.112-81.51 181.453-138.65 213.965-158.054 32.512 19.405 123.853 76.544 213.965 158.054 100.915 91.238 221.235 232.704 221.235 388.352 0 119.962-97.638 217.6-217.6 217.6-87.194 0-171.878-71.731-193.331-136.090-3.482-10.445-13.261-17.51-24.269-17.51s-20.787 7.066-24.269 17.51c-21.453 64.358-106.138 136.090-193.331 136.090z" />
<glyph unicode="&#xe923;" glyph-name="envelope" d="M896 665.6h-819.2c-42.342 0-76.8-34.458-76.8-76.8v-460.8c0-42.342 34.458-76.8 76.8-76.8h819.2c42.342 0 76.8 34.458 76.8 76.8v460.8c0 42.342-34.458 76.8-76.8 76.8zM896 614.4c1.536 0 2.97-0.154 4.454-0.41l-385.638-257.075c-14.848-9.882-41.933-9.882-56.781 0l-385.638 257.075c1.434 0.256 2.918 0.41 4.454 0.41h819.2zM896 102.4h-819.2c-14.131 0-25.6 11.469-25.6 25.6v438.579l378.419-252.262c15.923-10.598 36.352-15.923 56.781-15.923s40.858 5.325 56.781 15.923l378.419 252.262v-438.579c0-14.131-11.469-25.6-25.6-25.6z" />
<glyph unicode="&#xe924;" glyph-name="magnifier" d="M966.093-8.294l-304.282 331.981c68.557 71.731 106.24 165.53 106.24 265.114 0 102.554-39.936 199.014-112.486 271.514s-168.96 112.486-271.514 112.486-199.014-39.936-271.514-112.486-112.486-168.96-112.486-271.514 39.936-199.014 112.486-271.514 168.96-112.486 271.514-112.486c88.371 0 172.134 29.645 240.026 84.224l304.282-331.93c5.069-5.53 11.93-8.294 18.893-8.294 6.195 0 12.39 2.202 17.306 6.707 10.445 9.574 11.11 25.754 1.587 36.147zM51.2 588.8c0 183.501 149.299 332.8 332.8 332.8s332.8-149.299 332.8-332.8-149.299-332.8-332.8-332.8-332.8 149.299-332.8 332.8z" />
<glyph unicode="&#xe925;" glyph-name="phone" d="M916.173 517.274c-53.299 0-149.914 19.2-180.019 49.306-18.483 18.483-22.835 41.626-26.368 60.262-4.352 22.938-6.963 29.747-16.998 34.099-46.182 19.866-112.435 31.232-181.811 31.232-68.608 0-134.144-11.213-179.814-30.72-9.933-4.25-12.493-11.059-16.742-33.946-3.482-18.688-7.782-41.933-26.214-60.365-16.794-16.794-51.968-28.365-78.49-35.072-34.202-8.653-70.861-13.67-100.506-13.67-33.997 0-56.986 6.451-70.246 19.763-20.019 20.019-32.819 47.411-35.072 75.11-1.894 23.347 2.611 57.958 34.816 90.214 52.326 52.326 122.675 93.133 209.203 121.242 79.565 25.907 170.086 39.578 261.837 39.578 92.365 0 183.654-13.824 263.987-40.038 87.296-28.467 158.362-69.683 211.149-122.522 53.76-53.76 40.448-125.082 0.614-164.915-13.158-13.158-35.84-19.558-69.325-19.558zM510.976 743.373c77.158 0 148.89-12.595 202.035-35.379 36.506-15.667 42.65-48.026 47.104-71.578 2.662-14.080 4.966-26.266 12.288-33.587 12.902-12.902 87.347-34.355 143.821-34.355 24.627 0 32.41 4.198 33.382 4.813 15.872 16.077 35.738 55.603-0.87 92.262-92.416 92.416-256.512 147.558-438.989 147.558-180.992 0-343.501-54.528-434.842-145.818-14.746-14.746-21.504-31.539-20.019-49.869 1.28-15.462 8.704-31.437 19.968-42.803 0.973-0.614 8.858-5.018 34.304-5.018 56.218 0 130.099 21.043 142.797 33.741 7.219 7.219 9.472 19.405 12.083 33.485 4.403 23.654 10.394 56.064 46.95 71.68 52.531 22.477 123.546 34.816 199.936 34.816zM844.8 51.2h-665.6c-34.355 0-66.048 13.517-89.242 38.042s-34.918 56.934-33.024 91.238c0.205 3.942 6.042 97.331 65.024 191.437 34.918 55.706 81.203 100.096 137.523 131.942 69.683 39.373 154.624 59.341 252.518 59.341s182.835-19.968 252.518-59.341c56.371-31.846 102.656-76.237 137.523-131.942 58.982-94.157 64.819-187.546 65.024-191.437 1.894-34.304-9.83-66.714-33.024-91.238s-54.886-38.042-89.242-38.042zM512 512c-159.59 0-275.866-55.706-345.549-165.53-52.736-83.098-58.317-168.038-58.368-168.909-1.126-20.070 5.683-38.963 19.098-53.146s31.898-22.016 52.070-22.016h665.6c20.122 0 38.605 7.834 52.070 22.016s20.224 33.075 19.098 53.197c-0.051 0.819-5.683 85.76-58.368 168.858-69.734 109.824-186.010 165.53-345.549 165.53zM512 153.6c-84.685 0-153.6 68.915-153.6 153.6s68.915 153.6 153.6 153.6 153.6-68.915 153.6-153.6-68.915-153.6-153.6-153.6zM512 409.6c-56.474 0-102.4-45.926-102.4-102.4s45.926-102.4 102.4-102.4c56.474 0 102.4 45.926 102.4 102.4s-45.926 102.4-102.4 102.4z" />
<glyph unicode="&#xe926;" glyph-name="chevron-up2" d="M792.781 335.258c-22.323-22.835-53.402-24.627-80.691 0l-200.090 191.846-200.090-191.846c-27.29-24.627-58.419-22.835-80.589 0-22.323 22.784-20.89 61.286 0 82.688 20.787 21.402 240.384 230.502 240.384 230.502 11.11 11.418 25.702 17.152 40.294 17.152s29.184-5.734 40.397-17.152c0 0 219.494-209.101 240.384-230.502 20.941-21.402 22.323-59.904 0-82.688z" />
<glyph unicode="&#xe927;" glyph-name="plus-circle" d="M830.362 779.162c-91.853 91.853-214.016 142.438-343.962 142.438s-252.058-50.586-343.962-142.438-142.438-214.016-142.438-343.91 50.586-252.058 142.438-343.962 214.016-142.438 343.962-142.438 252.058 50.586 343.962 142.438 142.438 214.016 142.438 343.962-50.586 252.058-142.438 343.91zM486.4 0c-239.974 0-435.2 195.226-435.2 435.2s195.226 435.2 435.2 435.2c239.974 0 435.2-195.226 435.2-435.2s-195.226-435.2-435.2-435.2zM793.6 460.8h-281.6v281.6c0 14.131-11.469 25.6-25.6 25.6s-25.6-11.469-25.6-25.6v-281.6h-281.6c-14.131 0-25.6-11.469-25.6-25.6s11.469-25.6 25.6-25.6h281.6v-281.6c0-14.131 11.469-25.6 25.6-25.6s25.6 11.469 25.6 25.6v281.6h281.6c14.131 0 25.6 11.469 25.6 25.6s-11.469 25.6-25.6 25.6z" />
<glyph unicode="&#xe928;" glyph-name="undo" d="M896.512 742.912c-82.176 82.176-191.488 127.488-307.712 127.488s-225.536-45.261-307.712-127.488-127.488-191.488-127.488-307.712v-66.202l-109.875 109.875c-9.984 9.984-26.214 9.984-36.198 0s-9.984-26.214 0-36.198l153.6-153.6c5.018-5.018 11.571-7.475 18.125-7.475s13.107 2.509 18.125 7.475l153.6 153.6c9.984 9.984 9.984 26.214 0 36.198s-26.214 9.984-36.198 0l-109.875-109.875v66.202c0 211.763 172.237 384 384 384s384-172.237 384-384-172.237-384-384-384c-14.131 0-25.6-11.469-25.6-25.6s11.469-25.6 25.6-25.6c116.224 0 225.536 45.261 307.712 127.488s127.488 191.488 127.488 307.712c0 116.224-45.261 225.536-127.488 307.712z" />
<glyph unicode="&#xe929;" glyph-name="resize" d="M209.92 250.88l-158.72-148.48 102.4-102.4 148.48 158.72 107.52-107.52v307.2h-307.2l107.52-107.52zM972.8 819.2l-102.4 102.4-148.48-158.72-107.52 107.52v-307.2h307.2l-107.52 107.52 158.72 148.48z" />
<glyph unicode="&#xe92a;" glyph-name="full-screen" d="M357.734 410.266l-150.067-155.187-105.267 124.365v-328.243h327.014l-124.416 106.547 155.136 150.118-102.4 102.4zM594.586 870.4l124.416-106.547-155.136-150.118 102.4-102.4 150.067 155.187 105.267-124.365v328.243h-327.014z" />
<glyph unicode="&#xe92b;" glyph-name="frame-expand" d="M947.2 614.4c-14.131 0-25.6 11.469-25.6 25.6v102.4c0 14.131-11.469 25.6-25.6 25.6h-102.4c-14.131 0-25.6 11.469-25.6 25.6s11.469 25.6 25.6 25.6h102.4c42.342 0 76.8-34.458 76.8-76.8v-102.4c0-14.131-11.469-25.6-25.6-25.6zM25.6 614.4c-14.131 0-25.6 11.469-25.6 25.6v102.4c0 42.342 34.458 76.8 76.8 76.8h102.4c14.131 0 25.6-11.469 25.6-25.6s-11.469-25.6-25.6-25.6h-102.4c-14.131 0-25.6-11.469-25.6-25.6v-102.4c0-14.131-11.469-25.6-25.6-25.6zM179.2 51.2h-102.4c-42.342 0-76.8 34.458-76.8 76.8v102.4c0 14.131 11.469 25.6 25.6 25.6s25.6-11.469 25.6-25.6v-102.4c0-14.131 11.469-25.6 25.6-25.6h102.4c14.131 0 25.6-11.469 25.6-25.6s-11.469-25.6-25.6-25.6zM896 51.2h-102.4c-14.131 0-25.6 11.469-25.6 25.6s11.469 25.6 25.6 25.6h102.4c14.131 0 25.6 11.469 25.6 25.6v102.4c0 14.131 11.469 25.6 25.6 25.6s25.6-11.469 25.6-25.6v-102.4c0-42.342-34.458-76.8-76.8-76.8z" />
<glyph unicode="&#xe92c;" glyph-name="frame-contract" d="M742.4 512h-102.4c-42.342 0-76.8 34.458-76.8 76.8v102.4c0 14.131 11.469 25.6 25.6 25.6s25.6-11.469 25.6-25.6v-102.4c0-14.131 11.469-25.6 25.6-25.6h102.4c14.131 0 25.6-11.469 25.6-25.6s-11.469-25.6-25.6-25.6zM332.8 512h-102.4c-14.131 0-25.6 11.469-25.6 25.6s11.469 25.6 25.6 25.6h102.4c14.131 0 25.6 11.469 25.6 25.6v102.4c0 14.131 11.469 25.6 25.6 25.6s25.6-11.469 25.6-25.6v-102.4c0-42.342-34.458-76.8-76.8-76.8zM588.8 153.6c-14.131 0-25.6 11.469-25.6 25.6v102.4c0 42.342 34.458 76.8 76.8 76.8h102.4c14.131 0 25.6-11.469 25.6-25.6s-11.469-25.6-25.6-25.6h-102.4c-14.131 0-25.6-11.469-25.6-25.6v-102.4c0-14.131-11.469-25.6-25.6-25.6zM384 153.6c-14.131 0-25.6 11.469-25.6 25.6v102.4c0 14.131-11.469 25.6-25.6 25.6h-102.4c-14.131 0-25.6 11.469-25.6 25.6s11.469 25.6 25.6 25.6h102.4c42.342 0 76.8-34.458 76.8-76.8v-102.4c0-14.131-11.469-25.6-25.6-25.6z" />
<glyph unicode="&#xe92d;" glyph-name="arrow-left" d="M33.075 453.325l307.2 307.2c9.984 9.984 26.214 9.984 36.198 0s9.984-26.214 0-36.198l-263.475-263.475h834.202c14.131 0 25.6-11.469 25.6-25.6s-11.469-25.6-25.6-25.6h-834.202l263.475-263.475c9.984-9.984 9.984-26.214 0-36.198-5.018-5.018-11.571-7.475-18.125-7.475s-13.107 2.509-18.125 7.475l-307.2 307.2c-9.984 9.984-9.984 26.214 0 36.198z" />
<glyph unicode="&#xe92e;" glyph-name="arrow-left-circle" d="M142.438 779.162c91.853 91.853 214.016 142.438 343.962 142.438s252.058-50.586 343.962-142.438 142.438-214.016 142.438-343.91-50.586-252.058-142.438-343.962-214.016-142.438-343.962-142.438-252.058 50.586-343.962 142.438-142.438 214.016-142.438 343.962 50.586 252.058 142.438 343.91zM486.4 0c239.974 0 435.2 195.226 435.2 435.2s-195.226 435.2-435.2 435.2c-239.974 0-435.2-195.226-435.2-435.2s195.226-435.2 435.2-435.2zM186.726 453.274l204.8 204.8c9.984 9.984 26.214 9.984 36.198 0s9.984-26.214 0-36.198l-161.126-161.075h527.002c14.131 0 25.6-11.469 25.6-25.6s-11.469-25.6-25.6-25.6h-527.002l161.075-161.126c9.984-9.984 9.984-26.214 0-36.198-5.018-5.018-11.571-7.475-18.074-7.475s-13.107 2.509-18.074 7.526l-204.8 204.8c-9.984 9.984-9.984 26.214 0 36.198z" />
<glyph unicode="&#xe92f;" glyph-name="arrow-right" d="M990.925 453.325l-307.2 307.2c-9.984 9.984-26.214 9.984-36.198 0s-9.984-26.214 0-36.198l263.475-263.475h-834.202c-14.131 0-25.6-11.469-25.6-25.6s11.469-25.6 25.6-25.6h834.202l-263.475-263.475c-9.984-9.984-9.984-26.214 0-36.198 5.018-5.018 11.571-7.475 18.125-7.475s13.107 2.509 18.125 7.475l307.2 307.2c9.984 9.984 9.984 26.214 0 36.198z" />
<glyph unicode="&#xe930;" glyph-name="arrow-right-circle" d="M830.362 779.162c-91.853 91.853-214.016 142.438-343.962 142.438s-252.058-50.586-343.962-142.438-142.438-214.016-142.438-343.91 50.586-252.058 142.438-343.962 214.016-142.438 343.962-142.438 252.058 50.586 343.962 142.438 142.438 214.016 142.438 343.962-50.586 252.058-142.438 343.91zM486.4 0c-239.974 0-435.2 195.226-435.2 435.2s195.226 435.2 435.2 435.2c239.974 0 435.2-195.226 435.2-435.2s-195.226-435.2-435.2-435.2zM786.074 453.274l-204.8 204.8c-9.984 9.984-26.214 9.984-36.198 0s-9.984-26.214 0-36.198l161.126-161.075h-527.002c-14.131 0-25.6-11.469-25.6-25.6s11.469-25.6 25.6-25.6h527.002l-161.075-161.126c-9.984-9.984-9.984-26.214 0-36.198 5.018-5.018 11.571-7.475 18.074-7.475s13.107 2.509 18.074 7.526l204.8 204.8c9.984 9.984 9.984 26.214 0 36.198z" />
<glyph unicode="&#xe93b;" glyph-name="facebook" d="M592.618-64h-220.355v459.122h-121.39v210.854h121.386v118.402c0 108.699 68.006 235.623 259.75 235.623 67.595 0 117.218-6.335 119.291-6.608l20.345-2.645-4.899-197.323-22.418 0.206c-0.046 0-50.42 0.479-105.37 0.479-40.895 0-46.318-10.092-46.318-50.236v-97.944h180.484l-10-210.854h-170.463v-459.076h-0.043zM417.802-18.433h129.224v459.097h172.558l5.697 119.745h-178.255v143.511c0 47.389 10.911 95.802 91.882 95.802 32.536 0 63.451-0.16 83.338-0.319l2.758 110.929c-20.118 1.801-53.586 4.102-93.045 4.102-157.907 0-214.183-98.171-214.183-190.056v-163.968h-121.383v-119.745h121.386v-459.097h0.021z" />
</font>
</defs>
</svg>
